<svg width="491" height="83" viewBox="0 0 491 83" fill="none" xmlns="http://www.w3.org/2000/svg">
<path d="M8.478 1.454V2.786H3.024V7.016H7.452V8.348H3.024V14H1.386V1.454H8.478ZM14.7583 14.162C13.8343 14.162 12.9943 13.952 12.2383 13.532C11.4943 13.112 10.9063 12.518 10.4743 11.75C10.0543 10.97 9.84431 10.07 9.84431 9.05C9.84431 8.042 10.0603 7.154 10.4923 6.386C10.9363 5.606 11.5363 5.012 12.2923 4.604C13.0483 4.184 13.8943 3.974 14.8303 3.974C15.7663 3.974 16.6123 4.184 17.3683 4.604C18.1243 5.012 18.7183 5.6 19.1503 6.368C19.5943 7.136 19.8163 8.03 19.8163 9.05C19.8163 10.07 19.5883 10.97 19.1323 11.75C18.6883 12.518 18.0823 13.112 17.3143 13.532C16.5463 13.952 15.6943 14.162 14.7583 14.162ZM14.7583 12.722C15.3463 12.722 15.8983 12.584 16.4143 12.308C16.9303 12.032 17.3443 11.618 17.6563 11.066C17.9803 10.514 18.1423 9.842 18.1423 9.05C18.1423 8.258 17.9863 7.586 17.6743 7.034C17.3623 6.482 16.9543 6.074 16.4503 5.81C15.9463 5.534 15.4003 5.396 14.8123 5.396C14.2123 5.396 13.6603 5.534 13.1563 5.81C12.6643 6.074 12.2683 6.482 11.9683 7.034C11.6683 7.586 11.5183 8.258 11.5183 9.05C11.5183 9.854 11.6623 10.532 11.9503 11.084C12.2503 11.636 12.6463 12.05 13.1383 12.326C13.6303 12.59 14.1703 12.722 14.7583 12.722ZM26.272 14.162C25.348 14.162 24.508 13.952 23.752 13.532C23.008 13.112 22.42 12.518 21.988 11.75C21.568 10.97 21.358 10.07 21.358 9.05C21.358 8.042 21.574 7.154 22.006 6.386C22.45 5.606 23.05 5.012 23.806 4.604C24.562 4.184 25.408 3.974 26.344 3.974C27.28 3.974 28.126 4.184 28.882 4.604C29.638 5.012 30.232 5.6 30.664 6.368C31.108 7.136 31.33 8.03 31.33 9.05C31.33 10.07 31.102 10.97 30.646 11.75C30.202 12.518 29.596 13.112 28.828 13.532C28.06 13.952 27.208 14.162 26.272 14.162ZM26.272 12.722C26.86 12.722 27.412 12.584 27.928 12.308C28.444 12.032 28.858 11.618 29.17 11.066C29.494 10.514 29.656 9.842 29.656 9.05C29.656 8.258 29.5 7.586 29.188 7.034C28.876 6.482 28.468 6.074 27.964 5.81C27.46 5.534 26.914 5.396 26.326 5.396C25.726 5.396 25.174 5.534 24.67 5.81C24.178 6.074 23.782 6.482 23.482 7.034C23.182 7.586 23.032 8.258 23.032 9.05C23.032 9.854 23.176 10.532 23.464 11.084C23.764 11.636 24.16 12.05 24.652 12.326C25.144 12.59 25.684 12.722 26.272 12.722ZM32.8717 9.032C32.8717 8.024 33.0757 7.142 33.4837 6.386C33.8917 5.618 34.4497 5.024 35.1577 4.604C35.8777 4.184 36.6817 3.974 37.5697 3.974C38.3377 3.974 39.0517 4.154 39.7117 4.514C40.3717 4.862 40.8757 5.324 41.2237 5.9V0.68H42.8797V14H41.2237V12.146C40.8997 12.734 40.4197 13.22 39.7837 13.604C39.1477 13.976 38.4037 14.162 37.5517 14.162C36.6757 14.162 35.8777 13.946 35.1577 13.514C34.4497 13.082 33.8917 12.476 33.4837 11.696C33.0757 10.916 32.8717 10.028 32.8717 9.032ZM41.2237 9.05C41.2237 8.306 41.0737 7.658 40.7737 7.106C40.4737 6.554 40.0657 6.134 39.5497 5.846C39.0457 5.546 38.4877 5.396 37.8757 5.396C37.2637 5.396 36.7057 5.54 36.2017 5.828C35.6977 6.116 35.2957 6.536 34.9957 7.088C34.6957 7.64 34.5457 8.288 34.5457 9.032C34.5457 9.788 34.6957 10.448 34.9957 11.012C35.2957 11.564 35.6977 11.99 36.2017 12.29C36.7057 12.578 37.2637 12.722 37.8757 12.722C38.4877 12.722 39.0457 12.578 39.5497 12.29C40.0657 11.99 40.4737 11.564 40.7737 11.012C41.0737 10.448 41.2237 9.794 41.2237 9.05ZM52.4445 5.486V11.3C52.4445 11.78 52.5465 12.122 52.7505 12.326C52.9545 12.518 53.3085 12.614 53.8125 12.614H55.0185V14H53.5425C52.6305 14 51.9465 13.79 51.4905 13.37C51.0345 12.95 50.8065 12.26 50.8065 11.3V5.486H49.5285V4.136H50.8065V1.652H52.4445V4.136H55.0185V5.486H52.4445ZM61.8992 3.956C62.6432 3.956 63.3152 4.118 63.9152 4.442C64.5152 4.754 64.9832 5.228 65.3192 5.864C65.6672 6.5 65.8412 7.274 65.8412 8.186V14H64.2212V8.42C64.2212 7.436 63.9752 6.686 63.4832 6.17C62.9912 5.642 62.3192 5.378 61.4672 5.378C60.6032 5.378 59.9132 5.648 59.3972 6.188C58.8932 6.728 58.6412 7.514 58.6412 8.546V14H57.0032V0.68H58.6412V5.54C58.9652 5.036 59.4092 4.646 59.9732 4.37C60.5492 4.094 61.1912 3.956 61.8992 3.956ZM67.9049 9.032C67.9049 8.024 68.1089 7.142 68.5169 6.386C68.9249 5.618 69.4829 5.024 70.1909 4.604C70.9109 4.184 71.7089 3.974 72.5849 3.974C73.4489 3.974 74.1989 4.16 74.8349 4.532C75.4709 4.904 75.9449 5.372 76.2569 5.936V4.136H77.9129V14H76.2569V12.164C75.9329 12.74 75.4469 13.22 74.7989 13.604C74.1629 13.976 73.4189 14.162 72.5669 14.162C71.6909 14.162 70.8989 13.946 70.1909 13.514C69.4829 13.082 68.9249 12.476 68.5169 11.696C68.1089 10.916 67.9049 10.028 67.9049 9.032ZM76.2569 9.05C76.2569 8.306 76.1069 7.658 75.8069 7.106C75.5069 6.554 75.0989 6.134 74.5829 5.846C74.0789 5.546 73.5209 5.396 72.9089 5.396C72.2969 5.396 71.7389 5.54 71.2349 5.828C70.7309 6.116 70.3289 6.536 70.0289 7.088C69.7289 7.64 69.5789 8.288 69.5789 9.032C69.5789 9.788 69.7289 10.448 70.0289 11.012C70.3289 11.564 70.7309 11.99 71.2349 12.29C71.7389 12.578 72.2969 12.722 72.9089 12.722C73.5209 12.722 74.0789 12.578 74.5829 12.29C75.0989 11.99 75.5069 11.564 75.8069 11.012C76.1069 10.448 76.2569 9.794 76.2569 9.05ZM82.6789 5.486V11.3C82.6789 11.78 82.7809 12.122 82.9849 12.326C83.1889 12.518 83.5429 12.614 84.0469 12.614H85.2529V14H83.7769C82.8649 14 82.1809 13.79 81.7249 13.37C81.2689 12.95 81.0409 12.26 81.0409 11.3V5.486H79.7629V4.136H81.0409V1.652H82.6789V4.136H85.2529V5.486H82.6789ZM92.8824 2.534C92.5704 2.534 92.3064 2.426 92.0904 2.21C91.8744 1.994 91.7664 1.73 91.7664 1.418C91.7664 1.106 91.8744 0.842 92.0904 0.625999C92.3064 0.409999 92.5704 0.301999 92.8824 0.301999C93.1824 0.301999 93.4344 0.409999 93.6384 0.625999C93.8544 0.842 93.9624 1.106 93.9624 1.418C93.9624 1.73 93.8544 1.994 93.6384 2.21C93.4344 2.426 93.1824 2.534 92.8824 2.534ZM93.6744 4.136V14H92.0364V4.136H93.6744ZM99.9581 14.162C99.2021 14.162 98.5241 14.036 97.9241 13.784C97.3241 13.52 96.8501 13.16 96.5021 12.704C96.1541 12.236 95.9621 11.702 95.9261 11.102H97.6181C97.6661 11.594 97.8941 11.996 98.3021 12.308C98.7221 12.62 99.2681 12.776 99.9401 12.776C100.564 12.776 101.056 12.638 101.416 12.362C101.776 12.086 101.956 11.738 101.956 11.318C101.956 10.886 101.764 10.568 101.38 10.364C100.996 10.148 100.402 9.938 99.5981 9.734C98.8661 9.542 98.2661 9.35 97.7981 9.158C97.3421 8.954 96.9461 8.66 96.6101 8.276C96.2861 7.88 96.1241 7.364 96.1241 6.728C96.1241 6.224 96.2741 5.762 96.5741 5.342C96.8741 4.922 97.3001 4.592 97.8521 4.352C98.4041 4.1 99.0341 3.974 99.7421 3.974C100.834 3.974 101.716 4.25 102.388 4.802C103.06 5.354 103.42 6.11 103.468 7.07H101.83C101.794 6.554 101.584 6.14 101.2 5.828C100.828 5.516 100.324 5.36 99.6881 5.36C99.1001 5.36 98.6321 5.486 98.2841 5.738C97.9361 5.99 97.7621 6.32 97.7621 6.728C97.7621 7.052 97.8641 7.322 98.0681 7.538C98.2841 7.742 98.5481 7.91 98.8601 8.042C99.1841 8.162 99.6281 8.3 100.192 8.456C100.9 8.648 101.476 8.84 101.92 9.032C102.364 9.212 102.742 9.488 103.054 9.86C103.378 10.232 103.546 10.718 103.558 11.318C103.558 11.858 103.408 12.344 103.108 12.776C102.808 13.208 102.382 13.55 101.83 13.802C101.29 14.042 100.666 14.162 99.9581 14.162ZM110.057 9.032C110.057 8.024 110.261 7.142 110.669 6.386C111.077 5.618 111.635 5.024 112.343 4.604C113.063 4.184 113.867 3.974 114.755 3.974C115.523 3.974 116.237 4.154 116.897 4.514C117.557 4.862 118.061 5.324 118.409 5.9V0.68H120.065V14H118.409V12.146C118.085 12.734 117.605 13.22 116.969 13.604C116.333 13.976 115.589 14.162 114.737 14.162C113.861 14.162 113.063 13.946 112.343 13.514C111.635 13.082 111.077 12.476 110.669 11.696C110.261 10.916 110.057 10.028 110.057 9.032ZM118.409 9.05C118.409 8.306 118.259 7.658 117.959 7.106C117.659 6.554 117.251 6.134 116.735 5.846C116.231 5.546 115.673 5.396 115.061 5.396C114.449 5.396 113.891 5.54 113.387 5.828C112.883 6.116 112.481 6.536 112.181 7.088C111.881 7.64 111.731 8.288 111.731 9.032C111.731 9.788 111.881 10.448 112.181 11.012C112.481 11.564 112.883 11.99 113.387 12.29C113.891 12.578 114.449 12.722 115.061 12.722C115.673 12.722 116.231 12.578 116.735 12.29C117.251 11.99 117.659 11.564 117.959 11.012C118.259 10.448 118.409 9.794 118.409 9.05ZM131.833 8.69C131.833 9.002 131.815 9.332 131.779 9.68H123.895C123.955 10.652 124.285 11.414 124.885 11.966C125.497 12.506 126.235 12.776 127.099 12.776C127.807 12.776 128.395 12.614 128.863 12.29C129.343 11.954 129.679 11.51 129.871 10.958H131.635C131.371 11.906 130.843 12.68 130.051 13.28C129.259 13.868 128.275 14.162 127.099 14.162C126.163 14.162 125.323 13.952 124.579 13.532C123.847 13.112 123.271 12.518 122.851 11.75C122.431 10.97 122.221 10.07 122.221 9.05C122.221 8.03 122.425 7.136 122.833 6.368C123.241 5.6 123.811 5.012 124.543 4.604C125.287 4.184 126.139 3.974 127.099 3.974C128.035 3.974 128.863 4.178 129.583 4.586C130.303 4.994 130.855 5.558 131.239 6.278C131.635 6.986 131.833 7.79 131.833 8.69ZM130.141 8.348C130.141 7.724 130.003 7.19 129.727 6.746C129.451 6.29 129.073 5.948 128.593 5.72C128.125 5.48 127.603 5.36 127.027 5.36C126.199 5.36 125.491 5.624 124.903 6.152C124.327 6.68 123.997 7.412 123.913 8.348H130.141ZM135.633 0.68V14H133.995V0.68H135.633ZM139.271 2.534C138.959 2.534 138.695 2.426 138.479 2.21C138.263 1.994 138.155 1.73 138.155 1.418C138.155 1.106 138.263 0.842 138.479 0.625999C138.695 0.409999 138.959 0.301999 139.271 0.301999C139.571 0.301999 139.823 0.409999 140.027 0.625999C140.243 0.842 140.351 1.106 140.351 1.418C140.351 1.73 140.243 1.994 140.027 2.21C139.823 2.426 139.571 2.534 139.271 2.534ZM140.063 4.136V14H138.425V4.136H140.063ZM146.527 12.488L149.587 4.136H151.333L147.463 14H145.555L141.685 4.136H143.449L146.527 12.488ZM161.945 8.69C161.945 9.002 161.927 9.332 161.891 9.68H154.007C154.067 10.652 154.397 11.414 154.997 11.966C155.609 12.506 156.347 12.776 157.211 12.776C157.919 12.776 158.507 12.614 158.975 12.29C159.455 11.954 159.791 11.51 159.983 10.958H161.747C161.483 11.906 160.955 12.68 160.163 13.28C159.371 13.868 158.387 14.162 157.211 14.162C156.275 14.162 155.435 13.952 154.691 13.532C153.959 13.112 153.383 12.518 152.963 11.75C152.543 10.97 152.333 10.07 152.333 9.05C152.333 8.03 152.537 7.136 152.945 6.368C153.353 5.6 153.923 5.012 154.655 4.604C155.399 4.184 156.251 3.974 157.211 3.974C158.147 3.974 158.975 4.178 159.695 4.586C160.415 4.994 160.967 5.558 161.351 6.278C161.747 6.986 161.945 7.79 161.945 8.69ZM160.253 8.348C160.253 7.724 160.115 7.19 159.839 6.746C159.563 6.29 159.185 5.948 158.705 5.72C158.237 5.48 157.715 5.36 157.139 5.36C156.311 5.36 155.603 5.624 155.015 6.152C154.439 6.68 154.109 7.412 154.025 8.348H160.253ZM165.745 5.738C166.033 5.174 166.441 4.736 166.969 4.424C167.509 4.112 168.163 3.956 168.931 3.956V5.648H168.499C166.663 5.648 165.745 6.644 165.745 8.636V14H164.107V4.136H165.745V5.738ZM179.822 8.69C179.822 9.002 179.804 9.332 179.768 9.68H171.884C171.944 10.652 172.274 11.414 172.874 11.966C173.486 12.506 174.224 12.776 175.088 12.776C175.796 12.776 176.384 12.614 176.852 12.29C177.332 11.954 177.668 11.51 177.86 10.958H179.624C179.36 11.906 178.832 12.68 178.04 13.28C177.248 13.868 176.264 14.162 175.088 14.162C174.152 14.162 173.312 13.952 172.568 13.532C171.836 13.112 171.26 12.518 170.84 11.75C170.42 10.97 170.21 10.07 170.21 9.05C170.21 8.03 170.414 7.136 170.822 6.368C171.23 5.6 171.8 5.012 172.532 4.604C173.276 4.184 174.128 3.974 175.088 3.974C176.024 3.974 176.852 4.178 177.572 4.586C178.292 4.994 178.844 5.558 179.228 6.278C179.624 6.986 179.822 7.79 179.822 8.69ZM178.13 8.348C178.13 7.724 177.992 7.19 177.716 6.746C177.44 6.29 177.062 5.948 176.582 5.72C176.114 5.48 175.592 5.36 175.016 5.36C174.188 5.36 173.48 5.624 172.892 6.152C172.316 6.68 171.986 7.412 171.902 8.348H178.13ZM181.372 9.032C181.372 8.024 181.576 7.142 181.984 6.386C182.392 5.618 182.95 5.024 183.658 4.604C184.378 4.184 185.182 3.974 186.07 3.974C186.838 3.974 187.552 4.154 188.212 4.514C188.872 4.862 189.376 5.324 189.724 5.9V0.68H191.38V14H189.724V12.146C189.4 12.734 188.92 13.22 188.284 13.604C187.648 13.976 186.904 14.162 186.052 14.162C185.176 14.162 184.378 13.946 183.658 13.514C182.95 13.082 182.392 12.476 181.984 11.696C181.576 10.916 181.372 10.028 181.372 9.032ZM189.724 9.05C189.724 8.306 189.574 7.658 189.274 7.106C188.974 6.554 188.566 6.134 188.05 5.846C187.546 5.546 186.988 5.396 186.376 5.396C185.764 5.396 185.206 5.54 184.702 5.828C184.198 6.116 183.796 6.536 183.496 7.088C183.196 7.64 183.046 8.288 183.046 9.032C183.046 9.788 183.196 10.448 183.496 11.012C183.796 11.564 184.198 11.99 184.702 12.29C185.206 12.578 185.764 12.722 186.376 12.722C186.988 12.722 187.546 12.578 188.05 12.29C188.566 11.99 188.974 11.564 189.274 11.012C189.574 10.448 189.724 9.794 189.724 9.05ZM198.335 9.032C198.335 8.024 198.539 7.142 198.947 6.386C199.355 5.618 199.913 5.024 200.621 4.604C201.341 4.184 202.139 3.974 203.015 3.974C203.879 3.974 204.629 4.16 205.265 4.532C205.901 4.904 206.375 5.372 206.687 5.936V4.136H208.343V14H206.687V12.164C206.363 12.74 205.877 13.22 205.229 13.604C204.593 13.976 203.849 14.162 202.997 14.162C202.121 14.162 201.329 13.946 200.621 13.514C199.913 13.082 199.355 12.476 198.947 11.696C198.539 10.916 198.335 10.028 198.335 9.032ZM206.687 9.05C206.687 8.306 206.537 7.658 206.237 7.106C205.937 6.554 205.529 6.134 205.013 5.846C204.509 5.546 203.951 5.396 203.339 5.396C202.727 5.396 202.169 5.54 201.665 5.828C201.161 6.116 200.759 6.536 200.459 7.088C200.159 7.64 200.009 8.288 200.009 9.032C200.009 9.788 200.159 10.448 200.459 11.012C200.759 11.564 201.161 11.99 201.665 12.29C202.169 12.578 202.727 12.722 203.339 12.722C203.951 12.722 204.509 12.578 205.013 12.29C205.529 11.99 205.937 11.564 206.237 11.012C206.537 10.448 206.687 9.794 206.687 9.05ZM213.109 5.486V11.3C213.109 11.78 213.211 12.122 213.415 12.326C213.619 12.518 213.973 12.614 214.477 12.614H215.683V14H214.207C213.295 14 212.611 13.79 212.155 13.37C211.699 12.95 211.471 12.26 211.471 11.3V5.486H210.193V4.136H211.471V1.652H213.109V4.136H215.683V5.486H213.109ZM224.464 5.486V11.3C224.464 11.78 224.566 12.122 224.77 12.326C224.974 12.518 225.328 12.614 225.832 12.614H227.038V14H225.562C224.65 14 223.966 13.79 223.51 13.37C223.054 12.95 222.826 12.26 222.826 11.3V5.486H221.548V4.136H222.826V1.652H224.464V4.136H227.038V5.486H224.464ZM233.919 3.956C234.663 3.956 235.335 4.118 235.935 4.442C236.535 4.754 237.003 5.228 237.339 5.864C237.687 6.5 237.861 7.274 237.861 8.186V14H236.241V8.42C236.241 7.436 235.995 6.686 235.503 6.17C235.011 5.642 234.339 5.378 233.487 5.378C232.623 5.378 231.933 5.648 231.417 6.188C230.913 6.728 230.661 7.514 230.661 8.546V14H229.023V0.68H230.661V5.54C230.985 5.036 231.429 4.646 231.993 4.37C232.569 4.094 233.211 3.956 233.919 3.956ZM249.536 8.69C249.536 9.002 249.518 9.332 249.482 9.68H241.598C241.658 10.652 241.988 11.414 242.588 11.966C243.2 12.506 243.938 12.776 244.802 12.776C245.51 12.776 246.098 12.614 246.566 12.29C247.046 11.954 247.382 11.51 247.574 10.958H249.338C249.074 11.906 248.546 12.68 247.754 13.28C246.962 13.868 245.978 14.162 244.802 14.162C243.866 14.162 243.026 13.952 242.282 13.532C241.55 13.112 240.974 12.518 240.554 11.75C240.134 10.97 239.924 10.07 239.924 9.05C239.924 8.03 240.128 7.136 240.536 6.368C240.944 5.6 241.514 5.012 242.246 4.604C242.99 4.184 243.842 3.974 244.802 3.974C245.738 3.974 246.566 4.178 247.286 4.586C248.006 4.994 248.558 5.558 248.942 6.278C249.338 6.986 249.536 7.79 249.536 8.69ZM247.844 8.348C247.844 7.724 247.706 7.19 247.43 6.746C247.154 6.29 246.776 5.948 246.296 5.72C245.828 5.48 245.306 5.36 244.73 5.36C243.902 5.36 243.194 5.624 242.606 6.152C242.03 6.68 241.7 7.412 241.616 8.348H247.844ZM258.135 5.738C258.423 5.174 258.831 4.736 259.359 4.424C259.899 4.112 260.553 3.956 261.321 3.956V5.648H260.889C259.053 5.648 258.135 6.644 258.135 8.636V14H256.497V4.136H258.135V5.738ZM264.058 2.534C263.746 2.534 263.482 2.426 263.266 2.21C263.05 1.994 262.942 1.73 262.942 1.418C262.942 1.106 263.05 0.842 263.266 0.625999C263.482 0.409999 263.746 0.301999 264.058 0.301999C264.358 0.301999 264.61 0.409999 264.814 0.625999C265.03 0.842 265.138 1.106 265.138 1.418C265.138 1.73 265.03 1.994 264.814 2.21C264.61 2.426 264.358 2.534 264.058 2.534ZM264.85 4.136V14H263.212V4.136H264.85ZM271.71 3.974C272.562 3.974 273.306 4.16 273.942 4.532C274.59 4.904 275.07 5.372 275.382 5.936V4.136H277.038V14.216C277.038 15.116 276.846 15.914 276.462 16.61C276.078 17.318 275.526 17.87 274.806 18.266C274.098 18.662 273.27 18.86 272.322 18.86C271.026 18.86 269.946 18.554 269.082 17.942C268.218 17.33 267.708 16.496 267.552 15.44H269.172C269.352 16.04 269.724 16.52 270.288 16.88C270.852 17.252 271.53 17.438 272.322 17.438C273.222 17.438 273.954 17.156 274.518 16.592C275.094 16.028 275.382 15.236 275.382 14.216V12.146C275.058 12.722 274.578 13.202 273.942 13.586C273.306 13.97 272.562 14.162 271.71 14.162C270.834 14.162 270.036 13.946 269.316 13.514C268.608 13.082 268.05 12.476 267.642 11.696C267.234 10.916 267.03 10.028 267.03 9.032C267.03 8.024 267.234 7.142 267.642 6.386C268.05 5.618 268.608 5.024 269.316 4.604C270.036 4.184 270.834 3.974 271.71 3.974ZM275.382 9.05C275.382 8.306 275.232 7.658 274.932 7.106C274.632 6.554 274.224 6.134 273.708 5.846C273.204 5.546 272.646 5.396 272.034 5.396C271.422 5.396 270.864 5.54 270.36 5.828C269.856 6.116 269.454 6.536 269.154 7.088C268.854 7.64 268.704 8.288 268.704 9.032C268.704 9.788 268.854 10.448 269.154 11.012C269.454 11.564 269.856 11.99 270.36 12.29C270.864 12.578 271.422 12.722 272.034 12.722C272.646 12.722 273.204 12.578 273.708 12.29C274.224 11.99 274.632 11.564 274.932 11.012C275.232 10.448 275.382 9.794 275.382 9.05ZM284.702 3.956C285.446 3.956 286.118 4.118 286.718 4.442C287.318 4.754 287.786 5.228 288.122 5.864C288.47 6.5 288.644 7.274 288.644 8.186V14H287.024V8.42C287.024 7.436 286.778 6.686 286.286 6.17C285.794 5.642 285.122 5.378 284.27 5.378C283.406 5.378 282.716 5.648 282.2 6.188C281.696 6.728 281.444 7.514 281.444 8.546V14H279.806V0.68H281.444V5.54C281.768 5.036 282.212 4.646 282.776 4.37C283.352 4.094 283.994 3.956 284.702 3.956ZM293.318 5.486V11.3C293.318 11.78 293.42 12.122 293.624 12.326C293.828 12.518 294.182 12.614 294.686 12.614H295.892V14H294.416C293.504 14 292.82 13.79 292.364 13.37C291.908 12.95 291.68 12.26 291.68 11.3V5.486H290.402V4.136H291.68V1.652H293.318V4.136H295.892V5.486H293.318ZM304.673 5.486V11.3C304.673 11.78 304.775 12.122 304.979 12.326C305.183 12.518 305.537 12.614 306.041 12.614H307.247V14H305.771C304.859 14 304.175 13.79 303.719 13.37C303.263 12.95 303.035 12.26 303.035 11.3V5.486H301.757V4.136H303.035V1.652H304.673V4.136H307.247V5.486H304.673ZM310.078 2.534C309.766 2.534 309.502 2.426 309.286 2.21C309.07 1.994 308.962 1.73 308.962 1.418C308.962 1.106 309.07 0.842 309.286 0.625999C309.502 0.409999 309.766 0.301999 310.078 0.301999C310.378 0.301999 310.63 0.409999 310.834 0.625999C311.05 0.842 311.158 1.106 311.158 1.418C311.158 1.73 311.05 1.994 310.834 2.21C310.63 2.426 310.378 2.534 310.078 2.534ZM310.87 4.136V14H309.232V4.136H310.87ZM325.523 3.956C326.291 3.956 326.975 4.118 327.575 4.442C328.175 4.754 328.649 5.228 328.997 5.864C329.345 6.5 329.519 7.274 329.519 8.186V14H327.899V8.42C327.899 7.436 327.653 6.686 327.161 6.17C326.681 5.642 326.027 5.378 325.199 5.378C324.347 5.378 323.669 5.654 323.165 6.206C322.661 6.746 322.409 7.532 322.409 8.564V14H320.789V8.42C320.789 7.436 320.543 6.686 320.051 6.17C319.571 5.642 318.917 5.378 318.089 5.378C317.237 5.378 316.559 5.654 316.055 6.206C315.551 6.746 315.299 7.532 315.299 8.564V14H313.661V4.136H315.299V5.558C315.623 5.042 316.055 4.646 316.595 4.37C317.147 4.094 317.753 3.956 318.413 3.956C319.241 3.956 319.973 4.142 320.609 4.514C321.245 4.886 321.719 5.432 322.031 6.152C322.307 5.456 322.763 4.916 323.399 4.532C324.035 4.148 324.743 3.956 325.523 3.956ZM341.206 8.69C341.206 9.002 341.188 9.332 341.152 9.68H333.268C333.328 10.652 333.658 11.414 334.258 11.966C334.87 12.506 335.608 12.776 336.472 12.776C337.18 12.776 337.768 12.614 338.236 12.29C338.716 11.954 339.052 11.51 339.244 10.958H341.008C340.744 11.906 340.216 12.68 339.424 13.28C338.632 13.868 337.648 14.162 336.472 14.162C335.536 14.162 334.696 13.952 333.952 13.532C333.22 13.112 332.644 12.518 332.224 11.75C331.804 10.97 331.594 10.07 331.594 9.05C331.594 8.03 331.798 7.136 332.206 6.368C332.614 5.6 333.184 5.012 333.916 4.604C334.66 4.184 335.512 3.974 336.472 3.974C337.408 3.974 338.236 4.178 338.956 4.586C339.676 4.994 340.228 5.558 340.612 6.278C341.008 6.986 341.206 7.79 341.206 8.69ZM339.514 8.348C339.514 7.724 339.376 7.19 339.1 6.746C338.824 6.29 338.446 5.948 337.966 5.72C337.498 5.48 336.976 5.36 336.4 5.36C335.572 5.36 334.864 5.624 334.276 6.152C333.7 6.68 333.37 7.412 333.286 8.348H339.514ZM343.89 14.108C343.578 14.108 343.314 14 343.098 13.784C342.882 13.568 342.774 13.304 342.774 12.992C342.774 12.68 342.882 12.416 343.098 12.2C343.314 11.984 343.578 11.876 343.89 11.876C344.19 11.876 344.442 11.984 344.646 12.2C344.862 12.416 344.97 12.68 344.97 12.992C344.97 13.304 344.862 13.568 344.646 13.784C344.442 14 344.19 14.108 343.89 14.108ZM359.669 1.454V2.786H356.249V14H354.611V2.786H351.173V1.454H359.669ZM366.581 3.956C367.325 3.956 367.997 4.118 368.597 4.442C369.197 4.754 369.665 5.228 370.001 5.864C370.349 6.5 370.523 7.274 370.523 8.186V14H368.903V8.42C368.903 7.436 368.657 6.686 368.165 6.17C367.673 5.642 367.001 5.378 366.149 5.378C365.285 5.378 364.595 5.648 364.079 6.188C363.575 6.728 363.323 7.514 363.323 8.546V14H361.685V0.68H363.323V5.54C363.647 5.036 364.091 4.646 364.655 4.37C365.231 4.094 365.873 3.956 366.581 3.956ZM382.199 8.69C382.199 9.002 382.181 9.332 382.145 9.68H374.261C374.321 10.652 374.651 11.414 375.251 11.966C375.863 12.506 376.601 12.776 377.465 12.776C378.173 12.776 378.761 12.614 379.229 12.29C379.709 11.954 380.045 11.51 380.237 10.958H382.001C381.737 11.906 381.209 12.68 380.417 13.28C379.625 13.868 378.641 14.162 377.465 14.162C376.529 14.162 375.689 13.952 374.945 13.532C374.213 13.112 373.637 12.518 373.217 11.75C372.797 10.97 372.587 10.07 372.587 9.05C372.587 8.03 372.791 7.136 373.199 6.368C373.607 5.6 374.177 5.012 374.909 4.604C375.653 4.184 376.505 3.974 377.465 3.974C378.401 3.974 379.229 4.178 379.949 4.586C380.669 4.994 381.221 5.558 381.605 6.278C382.001 6.986 382.199 7.79 382.199 8.69ZM380.507 8.348C380.507 7.724 380.369 7.19 380.093 6.746C379.817 6.29 379.439 5.948 378.959 5.72C378.491 5.48 377.969 5.36 377.393 5.36C376.565 5.36 375.857 5.624 375.269 6.152C374.693 6.68 374.363 7.412 374.279 8.348H380.507ZM391.157 5.486V11.3C391.157 11.78 391.259 12.122 391.463 12.326C391.667 12.518 392.021 12.614 392.525 12.614H393.731V14H392.255C391.343 14 390.659 13.79 390.203 13.37C389.747 12.95 389.519 12.26 389.519 11.3V5.486H388.241V4.136H389.519V1.652H391.157V4.136H393.731V5.486H391.157ZM397.354 5.738C397.642 5.174 398.05 4.736 398.578 4.424C399.118 4.112 399.772 3.956 400.54 3.956V5.648H400.108C398.272 5.648 397.354 6.644 397.354 8.636V14H395.716V4.136H397.354V5.738ZM411.431 8.69C411.431 9.002 411.413 9.332 411.377 9.68H403.493C403.553 10.652 403.883 11.414 404.483 11.966C405.095 12.506 405.833 12.776 406.697 12.776C407.405 12.776 407.993 12.614 408.461 12.29C408.941 11.954 409.277 11.51 409.469 10.958H411.233C410.969 11.906 410.441 12.68 409.649 13.28C408.857 13.868 407.873 14.162 406.697 14.162C405.761 14.162 404.921 13.952 404.177 13.532C403.445 13.112 402.869 12.518 402.449 11.75C402.029 10.97 401.819 10.07 401.819 9.05C401.819 8.03 402.023 7.136 402.431 6.368C402.839 5.6 403.409 5.012 404.141 4.604C404.885 4.184 405.737 3.974 406.697 3.974C407.633 3.974 408.461 4.178 409.181 4.586C409.901 4.994 410.453 5.558 410.837 6.278C411.233 6.986 411.431 7.79 411.431 8.69ZM409.739 8.348C409.739 7.724 409.601 7.19 409.325 6.746C409.049 6.29 408.671 5.948 408.191 5.72C407.723 5.48 407.201 5.36 406.625 5.36C405.797 5.36 405.089 5.624 404.501 6.152C403.925 6.68 403.595 7.412 403.511 8.348H409.739ZM418.399 3.956C419.599 3.956 420.571 4.322 421.315 5.054C422.059 5.774 422.431 6.818 422.431 8.186V14H420.811V8.42C420.811 7.436 420.565 6.686 420.073 6.17C419.581 5.642 418.909 5.378 418.057 5.378C417.193 5.378 416.503 5.648 415.987 6.188C415.483 6.728 415.231 7.514 415.231 8.546V14H413.593V4.136H415.231V5.54C415.555 5.036 415.993 4.646 416.545 4.37C417.109 4.094 417.727 3.956 418.399 3.956ZM424.495 9.032C424.495 8.024 424.699 7.142 425.107 6.386C425.515 5.618 426.073 5.024 426.781 4.604C427.501 4.184 428.305 3.974 429.193 3.974C429.961 3.974 430.675 4.154 431.335 4.514C431.995 4.862 432.499 5.324 432.847 5.9V0.68H434.503V14H432.847V12.146C432.523 12.734 432.043 13.22 431.407 13.604C430.771 13.976 430.027 14.162 429.175 14.162C428.299 14.162 427.501 13.946 426.781 13.514C426.073 13.082 425.515 12.476 425.107 11.696C424.699 10.916 424.495 10.028 424.495 9.032ZM432.847 9.05C432.847 8.306 432.697 7.658 432.397 7.106C432.097 6.554 431.689 6.134 431.173 5.846C430.669 5.546 430.111 5.396 429.499 5.396C428.887 5.396 428.329 5.54 427.825 5.828C427.321 6.116 426.919 6.536 426.619 7.088C426.319 7.64 426.169 8.288 426.169 9.032C426.169 9.788 426.319 10.448 426.619 11.012C426.919 11.564 427.321 11.99 427.825 12.29C428.329 12.578 428.887 12.722 429.499 12.722C430.111 12.722 430.669 12.578 431.173 12.29C431.689 11.99 432.097 11.564 432.397 11.012C432.697 10.448 432.847 9.794 432.847 9.05ZM445.767 4.136L439.827 18.644H438.135L440.079 13.892L436.101 4.136H437.919L441.015 12.128L444.075 4.136H445.767ZM456.226 5.486H454.156V14H452.518V5.486H451.24V4.136H452.518V3.434C452.518 2.33 452.8 1.526 453.364 1.022C453.94 0.505999 454.858 0.247999 456.118 0.247999V1.616C455.398 1.616 454.888 1.76 454.588 2.048C454.3 2.324 454.156 2.786 454.156 3.434V4.136H456.226V5.486ZM462.438 14.162C461.514 14.162 460.674 13.952 459.918 13.532C459.174 13.112 458.586 12.518 458.154 11.75C457.734 10.97 457.524 10.07 457.524 9.05C457.524 8.042 457.74 7.154 458.172 6.386C458.616 5.606 459.216 5.012 459.972 4.604C460.728 4.184 461.574 3.974 462.51 3.974C463.446 3.974 464.292 4.184 465.048 4.604C465.804 5.012 466.398 5.6 466.83 6.368C467.274 7.136 467.496 8.03 467.496 9.05C467.496 10.07 467.268 10.97 466.812 11.75C466.368 12.518 465.762 13.112 464.994 13.532C464.226 13.952 463.374 14.162 462.438 14.162ZM462.438 12.722C463.026 12.722 463.578 12.584 464.094 12.308C464.61 12.032 465.024 11.618 465.336 11.066C465.66 10.514 465.822 9.842 465.822 9.05C465.822 8.258 465.666 7.586 465.354 7.034C465.042 6.482 464.634 6.074 464.13 5.81C463.626 5.534 463.08 5.396 462.492 5.396C461.892 5.396 461.34 5.534 460.836 5.81C460.344 6.074 459.948 6.482 459.648 7.034C459.348 7.586 459.198 8.258 459.198 9.05C459.198 9.854 459.342 10.532 459.63 11.084C459.93 11.636 460.326 12.05 460.818 12.326C461.31 12.59 461.85 12.722 462.438 12.722ZM473.952 14.162C473.028 14.162 472.188 13.952 471.432 13.532C470.688 13.112 470.1 12.518 469.668 11.75C469.248 10.97 469.038 10.07 469.038 9.05C469.038 8.042 469.254 7.154 469.686 6.386C470.13 5.606 470.73 5.012 471.486 4.604C472.242 4.184 473.088 3.974 474.024 3.974C474.96 3.974 475.806 4.184 476.562 4.604C477.318 5.012 477.912 5.6 478.344 6.368C478.788 7.136 479.01 8.03 479.01 9.05C479.01 10.07 478.782 10.97 478.326 11.75C477.882 12.518 477.276 13.112 476.508 13.532C475.74 13.952 474.888 14.162 473.952 14.162ZM473.952 12.722C474.54 12.722 475.092 12.584 475.608 12.308C476.124 12.032 476.538 11.618 476.85 11.066C477.174 10.514 477.336 9.842 477.336 9.05C477.336 8.258 477.18 7.586 476.868 7.034C476.556 6.482 476.148 6.074 475.644 5.81C475.14 5.534 474.594 5.396 474.006 5.396C473.406 5.396 472.854 5.534 472.35 5.81C471.858 6.074 471.462 6.482 471.162 7.034C470.862 7.586 470.712 8.258 470.712 9.05C470.712 9.854 470.856 10.532 471.144 11.084C471.444 11.636 471.84 12.05 472.332 12.326C472.824 12.59 473.364 12.722 473.952 12.722ZM480.551 9.032C480.551 8.024 480.755 7.142 481.163 6.386C481.571 5.618 482.129 5.024 482.837 4.604C483.557 4.184 484.361 3.974 485.249 3.974C486.017 3.974 486.731 4.154 487.391 4.514C488.051 4.862 488.555 5.324 488.903 5.9V0.68H490.559V14H488.903V12.146C488.579 12.734 488.099 13.22 487.463 13.604C486.827 13.976 486.083 14.162 485.231 14.162C484.355 14.162 483.557 13.946 482.837 13.514C482.129 13.082 481.571 12.476 481.163 11.696C480.755 10.916 480.551 10.028 480.551 9.032ZM488.903 9.05C488.903 8.306 488.753 7.658 488.453 7.106C488.153 6.554 487.745 6.134 487.229 5.846C486.725 5.546 486.167 5.396 485.555 5.396C484.943 5.396 484.385 5.54 483.881 5.828C483.377 6.116 482.975 6.536 482.675 7.088C482.375 7.64 482.225 8.288 482.225 9.032C482.225 9.788 482.375 10.448 482.675 11.012C482.975 11.564 483.377 11.99 483.881 12.29C484.385 12.578 484.943 12.722 485.555 12.722C486.167 12.722 486.725 12.578 487.229 12.29C487.745 11.99 488.153 11.564 488.453 11.012C488.753 10.448 488.903 9.794 488.903 9.05ZM0.774 41.032C0.774 40.024 0.978 39.142 1.386 38.386C1.794 37.618 2.352 37.024 3.06 36.604C3.78 36.184 4.584 35.974 5.472 35.974C6.24 35.974 6.954 36.154 7.614 36.514C8.274 36.862 8.778 37.324 9.126 37.9V32.68H10.782V46H9.126V44.146C8.802 44.734 8.322 45.22 7.686 45.604C7.05 45.976 6.306 46.162 5.454 46.162C4.578 46.162 3.78 45.946 3.06 45.514C2.352 45.082 1.794 44.476 1.386 43.696C0.978 42.916 0.774 42.028 0.774 41.032ZM9.126 41.05C9.126 40.306 8.976 39.658 8.676 39.106C8.376 38.554 7.968 38.134 7.452 37.846C6.948 37.546 6.39 37.396 5.778 37.396C5.166 37.396 4.608 37.54 4.104 37.828C3.6 38.116 3.198 38.536 2.898 39.088C2.598 39.64 2.448 40.288 2.448 41.032C2.448 41.788 2.598 42.448 2.898 43.012C3.198 43.564 3.6 43.99 4.104 44.29C4.608 44.578 5.166 44.722 5.778 44.722C6.39 44.722 6.948 44.578 7.452 44.29C7.968 43.99 8.376 43.564 8.676 43.012C8.976 42.448 9.126 41.794 9.126 41.05ZM22.5501 40.69C22.5501 41.002 22.5321 41.332 22.4961 41.68H14.6121C14.6721 42.652 15.0021 43.414 15.6021 43.966C16.2141 44.506 16.9521 44.776 17.8161 44.776C18.5241 44.776 19.1121 44.614 19.5801 44.29C20.0601 43.954 20.3961 43.51 20.5881 42.958H22.3521C22.0881 43.906 21.5601 44.68 20.7681 45.28C19.9761 45.868 18.9921 46.162 17.8161 46.162C16.8801 46.162 16.0401 45.952 15.2961 45.532C14.5641 45.112 13.9881 44.518 13.5681 43.75C13.1481 42.97 12.9381 42.07 12.9381 41.05C12.9381 40.03 13.1421 39.136 13.5501 38.368C13.9581 37.6 14.5281 37.012 15.2601 36.604C16.0041 36.184 16.8561 35.974 17.8161 35.974C18.7521 35.974 19.5801 36.178 20.3001 36.586C21.0201 36.994 21.5721 37.558 21.9561 38.278C22.3521 38.986 22.5501 39.79 22.5501 40.69ZM20.8581 40.348C20.8581 39.724 20.7201 39.19 20.4441 38.746C20.1681 38.29 19.7901 37.948 19.3101 37.72C18.8421 37.48 18.3201 37.36 17.7441 37.36C16.9161 37.36 16.2081 37.624 15.6201 38.152C15.0441 38.68 14.7141 39.412 14.6301 40.348H20.8581ZM26.3502 32.68V46H24.7122V32.68H26.3502ZM29.9879 34.534C29.6759 34.534 29.4119 34.426 29.1959 34.21C28.9799 33.994 28.8719 33.73 28.8719 33.418C28.8719 33.106 28.9799 32.842 29.1959 32.626C29.4119 32.41 29.6759 32.302 29.9879 32.302C30.2879 32.302 30.5399 32.41 30.7439 32.626C30.9599 32.842 31.0679 33.106 31.0679 33.418C31.0679 33.73 30.9599 33.994 30.7439 34.21C30.5399 34.426 30.2879 34.534 29.9879 34.534ZM30.7799 36.136V46H29.1419V36.136H30.7799ZM37.2435 44.488L40.3035 36.136H42.0495L38.1795 46H36.2715L32.4015 36.136H34.1655L37.2435 44.488ZM52.6614 40.69C52.6614 41.002 52.6434 41.332 52.6074 41.68H44.7234C44.7834 42.652 45.1134 43.414 45.7134 43.966C46.3254 44.506 47.0634 44.776 47.9274 44.776C48.6354 44.776 49.2234 44.614 49.6914 44.29C50.1714 43.954 50.5074 43.51 50.6994 42.958H52.4634C52.1994 43.906 51.6714 44.68 50.8794 45.28C50.0874 45.868 49.1034 46.162 47.9274 46.162C46.9914 46.162 46.1514 45.952 45.4074 45.532C44.6754 45.112 44.0994 44.518 43.6794 43.75C43.2594 42.97 43.0494 42.07 43.0494 41.05C43.0494 40.03 43.2534 39.136 43.6614 38.368C44.0694 37.6 44.6394 37.012 45.3714 36.604C46.1154 36.184 46.9674 35.974 47.9274 35.974C48.8634 35.974 49.6914 36.178 50.4114 36.586C51.1314 36.994 51.6834 37.558 52.0674 38.278C52.4634 38.986 52.6614 39.79 52.6614 40.69ZM50.9694 40.348C50.9694 39.724 50.8314 39.19 50.5554 38.746C50.2794 38.29 49.9014 37.948 49.4214 37.72C48.9534 37.48 48.4314 37.36 47.8554 37.36C47.0274 37.36 46.3194 37.624 45.7314 38.152C45.1554 38.68 44.8254 39.412 44.7414 40.348H50.9694ZM56.4615 37.738C56.7495 37.174 57.1575 36.736 57.6855 36.424C58.2255 36.112 58.8795 35.956 59.6475 35.956V37.648H59.2155C57.3795 37.648 56.4615 38.644 56.4615 40.636V46H54.8235V36.136H56.4615V37.738ZM70.0343 36.136L64.0943 50.644H62.4023L64.3463 45.892L60.3683 36.136H62.1863L65.2823 44.128L68.3423 36.136H70.0343ZM78.1178 37.954C78.4418 37.39 78.9218 36.922 79.5578 36.55C80.2058 36.166 80.9558 35.974 81.8078 35.974C82.6838 35.974 83.4758 36.184 84.1837 36.604C84.9037 37.024 85.4678 37.618 85.8758 38.386C86.2838 39.142 86.4878 40.024 86.4878 41.032C86.4878 42.028 86.2838 42.916 85.8758 43.696C85.4678 44.476 84.9037 45.082 84.1837 45.514C83.4758 45.946 82.6838 46.162 81.8078 46.162C80.9678 46.162 80.2238 45.976 79.5758 45.604C78.9398 45.22 78.4538 44.746 78.1178 44.182V50.68H76.4798V36.136H78.1178V37.954ZM84.8138 41.032C84.8138 40.288 84.6638 39.64 84.3638 39.088C84.0638 38.536 83.6558 38.116 83.1398 37.828C82.6358 37.54 82.0778 37.396 81.4658 37.396C80.8658 37.396 80.3078 37.546 79.7918 37.846C79.2878 38.134 78.8798 38.56 78.5678 39.124C78.2678 39.676 78.1178 40.318 78.1178 41.05C78.1178 41.794 78.2678 42.448 78.5678 43.012C78.8798 43.564 79.2878 43.99 79.7918 44.29C80.3078 44.578 80.8658 44.722 81.4658 44.722C82.0778 44.722 82.6358 44.578 83.1398 44.29C83.6558 43.99 84.0638 43.564 84.3638 43.012C84.6638 42.448 84.8138 41.788 84.8138 41.032ZM88.0318 41.032C88.0318 40.024 88.2358 39.142 88.6438 38.386C89.0518 37.618 89.6098 37.024 90.3178 36.604C91.0378 36.184 91.8358 35.974 92.7118 35.974C93.5758 35.974 94.3258 36.16 94.9618 36.532C95.5978 36.904 96.0718 37.372 96.3838 37.936V36.136H98.0398V46H96.3838V44.164C96.0598 44.74 95.5738 45.22 94.9258 45.604C94.2898 45.976 93.5458 46.162 92.6938 46.162C91.8178 46.162 91.0258 45.946 90.3178 45.514C89.6098 45.082 89.0518 44.476 88.6438 43.696C88.2358 42.916 88.0318 42.028 88.0318 41.032ZM96.3838 41.05C96.3838 40.306 96.2338 39.658 95.9338 39.106C95.6338 38.554 95.2258 38.134 94.7098 37.846C94.2058 37.546 93.6478 37.396 93.0358 37.396C92.4238 37.396 91.8658 37.54 91.3618 37.828C90.8578 38.116 90.4558 38.536 90.1558 39.088C89.8558 39.64 89.7058 40.288 89.7058 41.032C89.7058 41.788 89.8558 42.448 90.1558 43.012C90.4558 43.564 90.8578 43.99 91.3618 44.29C91.8658 44.578 92.4238 44.722 93.0358 44.722C93.6478 44.722 94.2058 44.578 94.7098 44.29C95.2258 43.99 95.6338 43.564 95.9338 43.012C96.2338 42.448 96.3838 41.794 96.3838 41.05ZM102.446 37.738C102.734 37.174 103.142 36.736 103.67 36.424C104.21 36.112 104.864 35.956 105.632 35.956V37.648H105.2C103.364 37.648 102.446 38.644 102.446 40.636V46H100.808V36.136H102.446V37.738ZM109.521 37.486V43.3C109.521 43.78 109.623 44.122 109.827 44.326C110.031 44.518 110.385 44.614 110.889 44.614H112.095V46H110.619C109.707 46 109.023 45.79 108.567 45.37C108.111 44.95 107.883 44.26 107.883 43.3V37.486H106.605V36.136H107.883V33.652H109.521V36.136H112.095V37.486H109.521ZM118.885 35.956C120.085 35.956 121.057 36.322 121.801 37.054C122.545 37.774 122.917 38.818 122.917 40.186V46H121.297V40.42C121.297 39.436 121.051 38.686 120.559 38.17C120.067 37.642 119.395 37.378 118.543 37.378C117.679 37.378 116.989 37.648 116.473 38.188C115.969 38.728 115.717 39.514 115.717 40.546V46H114.079V36.136H115.717V37.54C116.041 37.036 116.479 36.646 117.031 36.37C117.595 36.094 118.213 35.956 118.885 35.956ZM134.593 40.69C134.593 41.002 134.575 41.332 134.539 41.68H126.655C126.715 42.652 127.045 43.414 127.645 43.966C128.257 44.506 128.995 44.776 129.859 44.776C130.567 44.776 131.155 44.614 131.623 44.29C132.103 43.954 132.439 43.51 132.631 42.958H134.395C134.131 43.906 133.603 44.68 132.811 45.28C132.019 45.868 131.035 46.162 129.859 46.162C128.923 46.162 128.083 45.952 127.339 45.532C126.607 45.112 126.031 44.518 125.611 43.75C125.191 42.97 124.981 42.07 124.981 41.05C124.981 40.03 125.185 39.136 125.593 38.368C126.001 37.6 126.571 37.012 127.303 36.604C128.047 36.184 128.899 35.974 129.859 35.974C130.795 35.974 131.623 36.178 132.343 36.586C133.063 36.994 133.615 37.558 133.999 38.278C134.395 38.986 134.593 39.79 134.593 40.69ZM132.901 40.348C132.901 39.724 132.763 39.19 132.487 38.746C132.211 38.29 131.833 37.948 131.353 37.72C130.885 37.48 130.363 37.36 129.787 37.36C128.959 37.36 128.251 37.624 127.663 38.152C127.087 38.68 126.757 39.412 126.673 40.348H132.901ZM138.393 37.738C138.681 37.174 139.089 36.736 139.617 36.424C140.157 36.112 140.811 35.956 141.579 35.956V37.648H141.147C139.311 37.648 138.393 38.644 138.393 40.636V46H136.755V36.136H138.393V37.738ZM143.992 46.108C143.68 46.108 143.416 46 143.2 45.784C142.984 45.568 142.876 45.304 142.876 44.992C142.876 44.68 142.984 44.416 143.2 44.2C143.416 43.984 143.68 43.876 143.992 43.876C144.292 43.876 144.544 43.984 144.748 44.2C144.964 44.416 145.072 44.68 145.072 44.992C145.072 45.304 144.964 45.568 144.748 45.784C144.544 46 144.292 46.108 143.992 46.108ZM161.552 37.09C161.204 36.358 160.7 35.794 160.04 35.398C159.38 34.99 158.612 34.786 157.736 34.786C156.86 34.786 156.068 34.99 155.36 35.398C154.664 35.794 154.112 36.37 153.704 37.126C153.308 37.87 153.11 38.734 153.11 39.718C153.11 40.702 153.308 41.566 153.704 42.31C154.112 43.054 154.664 43.63 155.36 44.038C156.068 44.434 156.86 44.632 157.736 44.632C158.96 44.632 159.968 44.266 160.76 43.534C161.552 42.802 162.014 41.812 162.146 40.564H157.142V39.232H163.892V40.492C163.796 41.524 163.472 42.472 162.92 43.336C162.368 44.188 161.642 44.866 160.742 45.37C159.842 45.862 158.84 46.108 157.736 46.108C156.572 46.108 155.51 45.838 154.55 45.298C153.59 44.746 152.828 43.984 152.264 43.012C151.712 42.04 151.436 40.942 151.436 39.718C151.436 38.494 151.712 37.396 152.264 36.424C152.828 35.44 153.59 34.678 154.55 34.138C155.51 33.586 156.572 33.31 157.736 33.31C159.068 33.31 160.244 33.64 161.264 34.3C162.296 34.96 163.046 35.89 163.514 37.09H161.552ZM170.36 46.162C169.436 46.162 168.596 45.952 167.84 45.532C167.096 45.112 166.508 44.518 166.076 43.75C165.656 42.97 165.446 42.07 165.446 41.05C165.446 40.042 165.662 39.154 166.094 38.386C166.538 37.606 167.138 37.012 167.894 36.604C168.65 36.184 169.496 35.974 170.432 35.974C171.368 35.974 172.214 36.184 172.97 36.604C173.726 37.012 174.32 37.6 174.752 38.368C175.196 39.136 175.418 40.03 175.418 41.05C175.418 42.07 175.19 42.97 174.734 43.75C174.29 44.518 173.684 45.112 172.916 45.532C172.148 45.952 171.296 46.162 170.36 46.162ZM170.36 44.722C170.948 44.722 171.5 44.584 172.016 44.308C172.532 44.032 172.946 43.618 173.258 43.066C173.582 42.514 173.744 41.842 173.744 41.05C173.744 40.258 173.588 39.586 173.276 39.034C172.964 38.482 172.556 38.074 172.052 37.81C171.548 37.534 171.002 37.396 170.414 37.396C169.814 37.396 169.262 37.534 168.758 37.81C168.266 38.074 167.87 38.482 167.57 39.034C167.27 39.586 167.12 40.258 167.12 41.05C167.12 41.854 167.264 42.532 167.552 43.084C167.852 43.636 168.248 44.05 168.74 44.326C169.232 44.59 169.772 44.722 170.36 44.722ZM181.874 46.162C180.95 46.162 180.11 45.952 179.354 45.532C178.61 45.112 178.022 44.518 177.59 43.75C177.17 42.97 176.96 42.07 176.96 41.05C176.96 40.042 177.176 39.154 177.608 38.386C178.052 37.606 178.652 37.012 179.408 36.604C180.164 36.184 181.01 35.974 181.946 35.974C182.882 35.974 183.728 36.184 184.484 36.604C185.24 37.012 185.834 37.6 186.266 38.368C186.71 39.136 186.932 40.03 186.932 41.05C186.932 42.07 186.704 42.97 186.248 43.75C185.804 44.518 185.198 45.112 184.43 45.532C183.662 45.952 182.81 46.162 181.874 46.162ZM181.874 44.722C182.462 44.722 183.014 44.584 183.53 44.308C184.046 44.032 184.46 43.618 184.772 43.066C185.096 42.514 185.258 41.842 185.258 41.05C185.258 40.258 185.102 39.586 184.79 39.034C184.478 38.482 184.07 38.074 183.566 37.81C183.062 37.534 182.516 37.396 181.928 37.396C181.328 37.396 180.776 37.534 180.272 37.81C179.78 38.074 179.384 38.482 179.084 39.034C178.784 39.586 178.634 40.258 178.634 41.05C178.634 41.854 178.778 42.532 179.066 43.084C179.366 43.636 179.762 44.05 180.254 44.326C180.746 44.59 181.286 44.722 181.874 44.722ZM188.473 41.032C188.473 40.024 188.677 39.142 189.085 38.386C189.493 37.618 190.051 37.024 190.759 36.604C191.479 36.184 192.283 35.974 193.171 35.974C193.939 35.974 194.653 36.154 195.313 36.514C195.973 36.862 196.477 37.324 196.825 37.9V32.68H198.481V46H196.825V44.146C196.501 44.734 196.021 45.22 195.385 45.604C194.749 45.976 194.005 46.162 193.153 46.162C192.277 46.162 191.479 45.946 190.759 45.514C190.051 45.082 189.493 44.476 189.085 43.696C188.677 42.916 188.473 42.028 188.473 41.032ZM196.825 41.05C196.825 40.306 196.675 39.658 196.375 39.106C196.075 38.554 195.667 38.134 195.151 37.846C194.647 37.546 194.089 37.396 193.477 37.396C192.865 37.396 192.307 37.54 191.803 37.828C191.299 38.116 190.897 38.536 190.597 39.088C190.297 39.64 190.147 40.288 190.147 41.032C190.147 41.788 190.297 42.448 190.597 43.012C190.897 43.564 191.299 43.99 191.803 44.29C192.307 44.578 192.865 44.722 193.477 44.722C194.089 44.722 194.647 44.578 195.151 44.29C195.667 43.99 196.075 43.564 196.375 43.012C196.675 42.448 196.825 41.794 196.825 41.05ZM210.062 37.486H207.992V46H206.354V37.486H205.076V36.136H206.354V35.434C206.354 34.33 206.636 33.526 207.2 33.022C207.776 32.506 208.694 32.248 209.954 32.248V33.616C209.234 33.616 208.724 33.76 208.424 34.048C208.136 34.324 207.992 34.786 207.992 35.434V36.136H210.062V37.486ZM216.274 46.162C215.35 46.162 214.51 45.952 213.754 45.532C213.01 45.112 212.422 44.518 211.99 43.75C211.57 42.97 211.36 42.07 211.36 41.05C211.36 40.042 211.576 39.154 212.008 38.386C212.452 37.606 213.052 37.012 213.808 36.604C214.564 36.184 215.41 35.974 216.346 35.974C217.282 35.974 218.128 36.184 218.884 36.604C219.64 37.012 220.234 37.6 220.666 38.368C221.11 39.136 221.332 40.03 221.332 41.05C221.332 42.07 221.104 42.97 220.648 43.75C220.204 44.518 219.598 45.112 218.83 45.532C218.062 45.952 217.21 46.162 216.274 46.162ZM216.274 44.722C216.862 44.722 217.414 44.584 217.93 44.308C218.446 44.032 218.86 43.618 219.172 43.066C219.496 42.514 219.658 41.842 219.658 41.05C219.658 40.258 219.502 39.586 219.19 39.034C218.878 38.482 218.47 38.074 217.966 37.81C217.462 37.534 216.916 37.396 216.328 37.396C215.728 37.396 215.176 37.534 214.672 37.81C214.18 38.074 213.784 38.482 213.484 39.034C213.184 39.586 213.034 40.258 213.034 41.05C213.034 41.854 213.178 42.532 213.466 43.084C213.766 43.636 214.162 44.05 214.654 44.326C215.146 44.59 215.686 44.722 216.274 44.722ZM227.788 46.162C226.864 46.162 226.024 45.952 225.268 45.532C224.524 45.112 223.936 44.518 223.504 43.75C223.084 42.97 222.874 42.07 222.874 41.05C222.874 40.042 223.09 39.154 223.522 38.386C223.966 37.606 224.566 37.012 225.322 36.604C226.078 36.184 226.924 35.974 227.86 35.974C228.796 35.974 229.642 36.184 230.398 36.604C231.154 37.012 231.748 37.6 232.18 38.368C232.624 39.136 232.846 40.03 232.846 41.05C232.846 42.07 232.618 42.97 232.162 43.75C231.718 44.518 231.112 45.112 230.344 45.532C229.576 45.952 228.724 46.162 227.788 46.162ZM227.788 44.722C228.376 44.722 228.928 44.584 229.444 44.308C229.96 44.032 230.374 43.618 230.686 43.066C231.01 42.514 231.172 41.842 231.172 41.05C231.172 40.258 231.016 39.586 230.704 39.034C230.392 38.482 229.984 38.074 229.48 37.81C228.976 37.534 228.43 37.396 227.842 37.396C227.242 37.396 226.69 37.534 226.186 37.81C225.694 38.074 225.298 38.482 224.998 39.034C224.698 39.586 224.548 40.258 224.548 41.05C224.548 41.854 224.692 42.532 224.98 43.084C225.28 43.636 225.676 44.05 226.168 44.326C226.66 44.59 227.2 44.722 227.788 44.722ZM234.387 41.032C234.387 40.024 234.591 39.142 234.999 38.386C235.407 37.618 235.965 37.024 236.673 36.604C237.393 36.184 238.197 35.974 239.085 35.974C239.853 35.974 240.567 36.154 241.227 36.514C241.887 36.862 242.391 37.324 242.739 37.9V32.68H244.395V46H242.739V44.146C242.415 44.734 241.935 45.22 241.299 45.604C240.663 45.976 239.919 46.162 239.067 46.162C238.191 46.162 237.393 45.946 236.673 45.514C235.965 45.082 235.407 44.476 234.999 43.696C234.591 42.916 234.387 42.028 234.387 41.032ZM242.739 41.05C242.739 40.306 242.589 39.658 242.289 39.106C241.989 38.554 241.581 38.134 241.065 37.846C240.561 37.546 240.003 37.396 239.391 37.396C238.779 37.396 238.221 37.54 237.717 37.828C237.213 38.116 236.811 38.536 236.511 39.088C236.211 39.64 236.061 40.288 236.061 41.032C236.061 41.788 236.211 42.448 236.511 43.012C236.811 43.564 237.213 43.99 237.717 44.29C238.221 44.578 238.779 44.722 239.391 44.722C240.003 44.722 240.561 44.578 241.065 44.29C241.581 43.99 241.989 43.564 242.289 43.012C242.589 42.448 242.739 41.794 242.739 41.05ZM252.808 34.534C252.496 34.534 252.232 34.426 252.016 34.21C251.8 33.994 251.692 33.73 251.692 33.418C251.692 33.106 251.8 32.842 252.016 32.626C252.232 32.41 252.496 32.302 252.808 32.302C253.108 32.302 253.36 32.41 253.564 32.626C253.78 32.842 253.888 33.106 253.888 33.418C253.888 33.73 253.78 33.994 253.564 34.21C253.36 34.426 253.108 34.534 252.808 34.534ZM253.6 36.136V46H251.962V36.136H253.6ZM259.884 46.162C259.128 46.162 258.45 46.036 257.85 45.784C257.25 45.52 256.776 45.16 256.428 44.704C256.08 44.236 255.888 43.702 255.852 43.102H257.544C257.592 43.594 257.82 43.996 258.228 44.308C258.648 44.62 259.194 44.776 259.866 44.776C260.49 44.776 260.982 44.638 261.342 44.362C261.702 44.086 261.882 43.738 261.882 43.318C261.882 42.886 261.69 42.568 261.306 42.364C260.922 42.148 260.328 41.938 259.524 41.734C258.792 41.542 258.192 41.35 257.724 41.158C257.268 40.954 256.872 40.66 256.536 40.276C256.212 39.88 256.05 39.364 256.05 38.728C256.05 38.224 256.2 37.762 256.5 37.342C256.8 36.922 257.226 36.592 257.778 36.352C258.33 36.1 258.96 35.974 259.668 35.974C260.76 35.974 261.642 36.25 262.314 36.802C262.986 37.354 263.346 38.11 263.394 39.07H261.756C261.72 38.554 261.51 38.14 261.126 37.828C260.754 37.516 260.25 37.36 259.614 37.36C259.026 37.36 258.558 37.486 258.21 37.738C257.862 37.99 257.688 38.32 257.688 38.728C257.688 39.052 257.79 39.322 257.994 39.538C258.21 39.742 258.474 39.91 258.786 40.042C259.11 40.162 259.554 40.3 260.118 40.456C260.826 40.648 261.402 40.84 261.846 41.032C262.29 41.212 262.668 41.488 262.98 41.86C263.304 42.232 263.472 42.718 263.484 43.318C263.484 43.858 263.334 44.344 263.034 44.776C262.734 45.208 262.308 45.55 261.756 45.802C261.216 46.042 260.592 46.162 259.884 46.162ZM283.735 36.136L280.657 46H278.965L276.589 38.17L274.213 46H272.521L269.425 36.136H271.099L273.367 44.416L275.815 36.136H277.489L279.883 44.434L282.115 36.136H283.735ZM290.257 35.956C291.001 35.956 291.673 36.118 292.273 36.442C292.873 36.754 293.341 37.228 293.677 37.864C294.025 38.5 294.199 39.274 294.199 40.186V46H292.579V40.42C292.579 39.436 292.333 38.686 291.841 38.17C291.349 37.642 290.677 37.378 289.825 37.378C288.961 37.378 288.271 37.648 287.755 38.188C287.251 38.728 286.999 39.514 286.999 40.546V46H285.361V32.68H286.999V37.54C287.323 37.036 287.767 36.646 288.331 36.37C288.907 36.094 289.549 35.956 290.257 35.956ZM296.262 41.032C296.262 40.024 296.466 39.142 296.874 38.386C297.282 37.618 297.84 37.024 298.548 36.604C299.268 36.184 300.066 35.974 300.942 35.974C301.806 35.974 302.556 36.16 303.192 36.532C303.828 36.904 304.302 37.372 304.614 37.936V36.136H306.27V46H304.614V44.164C304.29 44.74 303.804 45.22 303.156 45.604C302.52 45.976 301.776 46.162 300.924 46.162C300.048 46.162 299.256 45.946 298.548 45.514C297.84 45.082 297.282 44.476 296.874 43.696C296.466 42.916 296.262 42.028 296.262 41.032ZM304.614 41.05C304.614 40.306 304.464 39.658 304.164 39.106C303.864 38.554 303.456 38.134 302.94 37.846C302.436 37.546 301.878 37.396 301.266 37.396C300.654 37.396 300.096 37.54 299.592 37.828C299.088 38.116 298.686 38.536 298.386 39.088C298.086 39.64 297.936 40.288 297.936 41.032C297.936 41.788 298.086 42.448 298.386 43.012C298.686 43.564 299.088 43.99 299.592 44.29C300.096 44.578 300.654 44.722 301.266 44.722C301.878 44.722 302.436 44.578 302.94 44.29C303.456 43.99 303.864 43.564 304.164 43.012C304.464 42.448 304.614 41.794 304.614 41.05ZM311.036 37.486V43.3C311.036 43.78 311.138 44.122 311.342 44.326C311.546 44.518 311.9 44.614 312.404 44.614H313.61V46H312.134C311.222 46 310.538 45.79 310.082 45.37C309.626 44.95 309.398 44.26 309.398 43.3V37.486H308.12V36.136H309.398V33.652H311.036V36.136H313.61V37.486H311.036ZM333.534 36.136L330.456 46H328.764L326.388 38.17L324.012 46H322.32L319.224 36.136H320.898L323.166 44.416L325.614 36.136H327.288L329.682 44.434L331.914 36.136H333.534ZM344.159 40.69C344.159 41.002 344.141 41.332 344.105 41.68H336.221C336.281 42.652 336.611 43.414 337.211 43.966C337.823 44.506 338.561 44.776 339.425 44.776C340.133 44.776 340.721 44.614 341.189 44.29C341.669 43.954 342.005 43.51 342.197 42.958H343.961C343.697 43.906 343.169 44.68 342.377 45.28C341.585 45.868 340.601 46.162 339.425 46.162C338.489 46.162 337.649 45.952 336.905 45.532C336.173 45.112 335.597 44.518 335.177 43.75C334.757 42.97 334.547 42.07 334.547 41.05C334.547 40.03 334.751 39.136 335.159 38.368C335.567 37.6 336.137 37.012 336.869 36.604C337.613 36.184 338.465 35.974 339.425 35.974C340.361 35.974 341.189 36.178 341.909 36.586C342.629 36.994 343.181 37.558 343.565 38.278C343.961 38.986 344.159 39.79 344.159 40.69ZM342.467 40.348C342.467 39.724 342.329 39.19 342.053 38.746C341.777 38.29 341.399 37.948 340.919 37.72C340.451 37.48 339.929 37.36 339.353 37.36C338.525 37.36 337.817 37.624 337.229 38.152C336.653 38.68 336.323 39.412 336.239 40.348H342.467ZM350.508 41.032C350.508 40.024 350.712 39.142 351.12 38.386C351.528 37.618 352.086 37.024 352.794 36.604C353.514 36.184 354.318 35.974 355.206 35.974C355.974 35.974 356.688 36.154 357.348 36.514C358.008 36.862 358.512 37.324 358.86 37.9V32.68H360.516V46H358.86V44.146C358.536 44.734 358.056 45.22 357.42 45.604C356.784 45.976 356.04 46.162 355.188 46.162C354.312 46.162 353.514 45.946 352.794 45.514C352.086 45.082 351.528 44.476 351.12 43.696C350.712 42.916 350.508 42.028 350.508 41.032ZM358.86 41.05C358.86 40.306 358.71 39.658 358.41 39.106C358.11 38.554 357.702 38.134 357.186 37.846C356.682 37.546 356.124 37.396 355.512 37.396C354.9 37.396 354.342 37.54 353.838 37.828C353.334 38.116 352.932 38.536 352.632 39.088C352.332 39.64 352.182 40.288 352.182 41.032C352.182 41.788 352.332 42.448 352.632 43.012C352.932 43.564 353.334 43.99 353.838 44.29C354.342 44.578 354.9 44.722 355.512 44.722C356.124 44.722 356.682 44.578 357.186 44.29C357.702 43.99 358.11 43.564 358.41 43.012C358.71 42.448 358.86 41.794 358.86 41.05ZM372.284 40.69C372.284 41.002 372.266 41.332 372.23 41.68H364.346C364.406 42.652 364.736 43.414 365.336 43.966C365.948 44.506 366.686 44.776 367.55 44.776C368.258 44.776 368.846 44.614 369.314 44.29C369.794 43.954 370.13 43.51 370.322 42.958H372.086C371.822 43.906 371.294 44.68 370.502 45.28C369.71 45.868 368.726 46.162 367.55 46.162C366.614 46.162 365.774 45.952 365.03 45.532C364.298 45.112 363.722 44.518 363.302 43.75C362.882 42.97 362.672 42.07 362.672 41.05C362.672 40.03 362.876 39.136 363.284 38.368C363.692 37.6 364.262 37.012 364.994 36.604C365.738 36.184 366.59 35.974 367.55 35.974C368.486 35.974 369.314 36.178 370.034 36.586C370.754 36.994 371.306 37.558 371.69 38.278C372.086 38.986 372.284 39.79 372.284 40.69ZM370.592 40.348C370.592 39.724 370.454 39.19 370.178 38.746C369.902 38.29 369.524 37.948 369.044 37.72C368.576 37.48 368.054 37.36 367.478 37.36C366.65 37.36 365.942 37.624 365.354 38.152C364.778 38.68 364.448 39.412 364.364 40.348H370.592ZM376.085 32.68V46H374.447V32.68H376.085ZM379.722 34.534C379.41 34.534 379.146 34.426 378.93 34.21C378.714 33.994 378.606 33.73 378.606 33.418C378.606 33.106 378.714 32.842 378.93 32.626C379.146 32.41 379.41 32.302 379.722 32.302C380.022 32.302 380.274 32.41 380.478 32.626C380.694 32.842 380.802 33.106 380.802 33.418C380.802 33.73 380.694 33.994 380.478 34.21C380.274 34.426 380.022 34.534 379.722 34.534ZM380.514 36.136V46H378.876V36.136H380.514ZM386.978 44.488L390.038 36.136H391.784L387.914 46H386.006L382.136 36.136H383.9L386.978 44.488ZM402.396 40.69C402.396 41.002 402.378 41.332 402.342 41.68H394.458C394.518 42.652 394.848 43.414 395.448 43.966C396.06 44.506 396.798 44.776 397.662 44.776C398.37 44.776 398.958 44.614 399.426 44.29C399.906 43.954 400.242 43.51 400.434 42.958H402.198C401.934 43.906 401.406 44.68 400.614 45.28C399.822 45.868 398.838 46.162 397.662 46.162C396.726 46.162 395.886 45.952 395.142 45.532C394.41 45.112 393.834 44.518 393.414 43.75C392.994 42.97 392.784 42.07 392.784 41.05C392.784 40.03 392.988 39.136 393.396 38.368C393.804 37.6 394.374 37.012 395.106 36.604C395.85 36.184 396.702 35.974 397.662 35.974C398.598 35.974 399.426 36.178 400.146 36.586C400.866 36.994 401.418 37.558 401.802 38.278C402.198 38.986 402.396 39.79 402.396 40.69ZM400.704 40.348C400.704 39.724 400.566 39.19 400.29 38.746C400.014 38.29 399.636 37.948 399.156 37.72C398.688 37.48 398.166 37.36 397.59 37.36C396.762 37.36 396.054 37.624 395.466 38.152C394.89 38.68 394.56 39.412 394.476 40.348H400.704ZM406.196 37.738C406.484 37.174 406.892 36.736 407.42 36.424C407.96 36.112 408.614 35.956 409.382 35.956V37.648H408.95C407.114 37.648 406.196 38.644 406.196 40.636V46H404.558V36.136H406.196V37.738ZM411.795 46.108C411.483 46.108 411.219 46 411.003 45.784C410.787 45.568 410.679 45.304 410.679 44.992C410.679 44.68 410.787 44.416 411.003 44.2C411.219 43.984 411.483 43.876 411.795 43.876C412.095 43.876 412.347 43.984 412.551 44.2C412.767 44.416 412.875 44.68 412.875 44.992C412.875 45.304 412.767 45.568 412.551 45.784C412.347 46 412.095 46.108 411.795 46.108ZM428.635 33.454L424.549 41.266V46H422.911V41.266L418.807 33.454H420.625L423.721 39.808L426.817 33.454H428.635ZM434.665 46.162C433.741 46.162 432.901 45.952 432.145 45.532C431.401 45.112 430.813 44.518 430.381 43.75C429.961 42.97 429.751 42.07 429.751 41.05C429.751 40.042 429.967 39.154 430.399 38.386C430.843 37.606 431.443 37.012 432.199 36.604C432.955 36.184 433.801 35.974 434.737 35.974C435.673 35.974 436.519 36.184 437.275 36.604C438.031 37.012 438.625 37.6 439.057 38.368C439.501 39.136 439.723 40.03 439.723 41.05C439.723 42.07 439.495 42.97 439.039 43.75C438.595 44.518 437.989 45.112 437.221 45.532C436.453 45.952 435.601 46.162 434.665 46.162ZM434.665 44.722C435.253 44.722 435.805 44.584 436.321 44.308C436.837 44.032 437.251 43.618 437.563 43.066C437.887 42.514 438.049 41.842 438.049 41.05C438.049 40.258 437.893 39.586 437.581 39.034C437.269 38.482 436.861 38.074 436.357 37.81C435.853 37.534 435.307 37.396 434.719 37.396C434.119 37.396 433.567 37.534 433.063 37.81C432.571 38.074 432.175 38.482 431.875 39.034C431.575 39.586 431.425 40.258 431.425 41.05C431.425 41.854 431.569 42.532 431.857 43.084C432.157 43.636 432.553 44.05 433.045 44.326C433.537 44.59 434.077 44.722 434.665 44.722ZM450.624 36.136V46H448.986V44.542C448.674 45.046 448.236 45.442 447.672 45.73C447.12 46.006 446.508 46.144 445.836 46.144C445.068 46.144 444.378 45.988 443.766 45.676C443.154 45.352 442.668 44.872 442.308 44.236C441.96 43.6 441.786 42.826 441.786 41.914V36.136H443.406V41.698C443.406 42.67 443.652 43.42 444.144 43.948C444.636 44.464 445.308 44.722 446.16 44.722C447.036 44.722 447.726 44.452 448.23 43.912C448.734 43.372 448.986 42.586 448.986 41.554V36.136H450.624ZM455.028 37.738C455.316 37.174 455.724 36.736 456.252 36.424C456.792 36.112 457.446 35.956 458.214 35.956V37.648H457.782C455.946 37.648 455.028 38.644 455.028 40.636V46H453.39V36.136H455.028V37.738ZM6.282 67.956C7.026 67.956 7.698 68.118 8.298 68.442C8.898 68.754 9.366 69.228 9.702 69.864C10.05 70.5 10.224 71.274 10.224 72.186V78H8.604V72.42C8.604 71.436 8.358 70.686 7.866 70.17C7.374 69.642 6.702 69.378 5.85 69.378C4.986 69.378 4.296 69.648 3.78 70.188C3.276 70.728 3.024 71.514 3.024 72.546V78H1.386V64.68H3.024V69.54C3.348 69.036 3.792 68.646 4.356 68.37C4.932 68.094 5.574 67.956 6.282 67.956ZM21.6477 68.136V78H20.0097V76.542C19.6977 77.046 19.2597 77.442 18.6957 77.73C18.1437 78.006 17.5317 78.144 16.8597 78.144C16.0917 78.144 15.4017 77.988 14.7897 77.676C14.1777 77.352 13.6917 76.872 13.3317 76.236C12.9837 75.6 12.8097 74.826 12.8097 73.914V68.136H14.4297V73.698C14.4297 74.67 14.6757 75.42 15.1677 75.948C15.6597 76.464 16.3317 76.722 17.1837 76.722C18.0597 76.722 18.7497 76.452 19.2537 75.912C19.7577 75.372 20.0097 74.586 20.0097 73.554V68.136H21.6477ZM29.2193 67.956C30.4193 67.956 31.3913 68.322 32.1353 69.054C32.8793 69.774 33.2513 70.818 33.2513 72.186V78H31.6313V72.42C31.6313 71.436 31.3853 70.686 30.8933 70.17C30.4013 69.642 29.7293 69.378 28.8773 69.378C28.0133 69.378 27.3233 69.648 26.8073 70.188C26.3033 70.728 26.0513 71.514 26.0513 72.546V78H24.4133V68.136H26.0513V69.54C26.3753 69.036 26.8133 68.646 27.3653 68.37C27.9293 68.094 28.5473 67.956 29.2193 67.956ZM39.995 67.974C40.847 67.974 41.591 68.16 42.227 68.532C42.875 68.904 43.355 69.372 43.667 69.936V68.136H45.323V78.216C45.323 79.116 45.131 79.914 44.747 80.61C44.363 81.318 43.811 81.87 43.091 82.266C42.383 82.662 41.555 82.86 40.607 82.86C39.311 82.86 38.231 82.554 37.367 81.942C36.503 81.33 35.993 80.496 35.837 79.44H37.457C37.637 80.04 38.009 80.52 38.573 80.88C39.137 81.252 39.815 81.438 40.607 81.438C41.507 81.438 42.239 81.156 42.803 80.592C43.379 80.028 43.667 79.236 43.667 78.216V76.146C43.343 76.722 42.863 77.202 42.227 77.586C41.591 77.97 40.847 78.162 39.995 78.162C39.119 78.162 38.321 77.946 37.601 77.514C36.893 77.082 36.335 76.476 35.927 75.696C35.519 74.916 35.315 74.028 35.315 73.032C35.315 72.024 35.519 71.142 35.927 70.386C36.335 69.618 36.893 69.024 37.601 68.604C38.321 68.184 39.119 67.974 39.995 67.974ZM43.667 73.05C43.667 72.306 43.517 71.658 43.217 71.106C42.917 70.554 42.509 70.134 41.993 69.846C41.489 69.546 40.931 69.396 40.319 69.396C39.707 69.396 39.149 69.54 38.645 69.828C38.141 70.116 37.739 70.536 37.439 71.088C37.139 71.64 36.989 72.288 36.989 73.032C36.989 73.788 37.139 74.448 37.439 75.012C37.739 75.564 38.141 75.99 38.645 76.29C39.149 76.578 39.707 76.722 40.319 76.722C40.931 76.722 41.489 76.578 41.993 76.29C42.509 75.99 42.917 75.564 43.217 75.012C43.517 74.448 43.667 73.794 43.667 73.05ZM57.0911 72.69C57.0911 73.002 57.0731 73.332 57.0371 73.68H49.1531C49.2131 74.652 49.5431 75.414 50.1431 75.966C50.7551 76.506 51.4931 76.776 52.3571 76.776C53.0651 76.776 53.6531 76.614 54.1211 76.29C54.6011 75.954 54.9371 75.51 55.1291 74.958H56.8931C56.6291 75.906 56.1011 76.68 55.3091 77.28C54.5171 77.868 53.5331 78.162 52.3571 78.162C51.4211 78.162 50.5811 77.952 49.8371 77.532C49.1051 77.112 48.5291 76.518 48.1091 75.75C47.6891 74.97 47.4791 74.07 47.4791 73.05C47.4791 72.03 47.6831 71.136 48.0911 70.368C48.4991 69.6 49.0691 69.012 49.8011 68.604C50.5451 68.184 51.3971 67.974 52.3571 67.974C53.2931 67.974 54.1211 68.178 54.8411 68.586C55.5611 68.994 56.1131 69.558 56.4971 70.278C56.8931 70.986 57.0911 71.79 57.0911 72.69ZM55.3991 72.348C55.3991 71.724 55.2611 71.19 54.9851 70.746C54.7091 70.29 54.3311 69.948 53.8511 69.72C53.3831 69.48 52.8611 69.36 52.2851 69.36C51.4571 69.36 50.7491 69.624 50.1611 70.152C49.5851 70.68 49.2551 71.412 49.1711 72.348H55.3991ZM60.8912 69.738C61.1792 69.174 61.5872 68.736 62.1152 68.424C62.6552 68.112 63.3092 67.956 64.0772 67.956V69.648H63.6452C61.8092 69.648 60.8912 70.644 60.8912 72.636V78H59.2532V68.136H60.8912V69.738ZM70.1549 73.05C70.1549 72.03 70.3589 71.142 70.7669 70.386C71.1749 69.618 71.7389 69.024 72.4589 68.604C73.1909 68.184 74.0249 67.974 74.9609 67.974C76.1729 67.974 77.1689 68.268 77.9489 68.856C78.7409 69.444 79.2629 70.26 79.5149 71.304H77.7509C77.5829 70.704 77.2529 70.23 76.7609 69.882C76.2809 69.534 75.6809 69.36 74.9609 69.36C74.0249 69.36 73.2689 69.684 72.6929 70.332C72.1169 70.968 71.8289 71.874 71.8289 73.05C71.8289 74.238 72.1169 75.156 72.6929 75.804C73.2689 76.452 74.0249 76.776 74.9609 76.776C75.6809 76.776 76.2809 76.608 76.7609 76.272C77.2409 75.936 77.5709 75.456 77.7509 74.832H79.5149C79.2509 75.84 78.7229 76.65 77.9309 77.262C77.1389 77.862 76.1489 78.162 74.9609 78.162C74.0249 78.162 73.1909 77.952 72.4589 77.532C71.7389 77.112 71.1749 76.518 70.7669 75.75C70.3589 74.982 70.1549 74.082 70.1549 73.05ZM86.0025 78.162C85.0785 78.162 84.2385 77.952 83.4825 77.532C82.7385 77.112 82.1505 76.518 81.7185 75.75C81.2985 74.97 81.0885 74.07 81.0885 73.05C81.0885 72.042 81.3045 71.154 81.7365 70.386C82.1805 69.606 82.7805 69.012 83.5365 68.604C84.2925 68.184 85.1385 67.974 86.0745 67.974C87.0105 67.974 87.8565 68.184 88.6125 68.604C89.3685 69.012 89.9625 69.6 90.3945 70.368C90.8385 71.136 91.0605 72.03 91.0605 73.05C91.0605 74.07 90.8325 74.97 90.3765 75.75C89.9325 76.518 89.3265 77.112 88.5585 77.532C87.7905 77.952 86.9385 78.162 86.0025 78.162ZM86.0025 76.722C86.5905 76.722 87.1425 76.584 87.6585 76.308C88.1745 76.032 88.5885 75.618 88.9005 75.066C89.2245 74.514 89.3865 73.842 89.3865 73.05C89.3865 72.258 89.2305 71.586 88.9185 71.034C88.6065 70.482 88.1985 70.074 87.6945 69.81C87.1905 69.534 86.6445 69.396 86.0565 69.396C85.4565 69.396 84.9045 69.534 84.4005 69.81C83.9085 70.074 83.5125 70.482 83.2125 71.034C82.9125 71.586 82.7625 72.258 82.7625 73.05C82.7625 73.854 82.9065 74.532 83.1945 75.084C83.4945 75.636 83.8905 76.05 84.3825 76.326C84.8745 76.59 85.4145 76.722 86.0025 76.722ZM105.076 67.956C105.844 67.956 106.528 68.118 107.128 68.442C107.728 68.754 108.202 69.228 108.55 69.864C108.898 70.5 109.072 71.274 109.072 72.186V78H107.452V72.42C107.452 71.436 107.206 70.686 106.714 70.17C106.234 69.642 105.58 69.378 104.752 69.378C103.9 69.378 103.222 69.654 102.718 70.206C102.214 70.746 101.962 71.532 101.962 72.564V78H100.342V72.42C100.342 71.436 100.096 70.686 99.6041 70.17C99.1241 69.642 98.4701 69.378 97.6421 69.378C96.7901 69.378 96.1121 69.654 95.6081 70.206C95.1041 70.746 94.8521 71.532 94.8521 72.564V78H93.2141V68.136H94.8521V69.558C95.1761 69.042 95.6081 68.646 96.1481 68.37C96.7001 68.094 97.3061 67.956 97.9661 67.956C98.7941 67.956 99.5261 68.142 100.162 68.514C100.798 68.886 101.272 69.432 101.584 70.152C101.86 69.456 102.316 68.916 102.952 68.532C103.588 68.148 104.296 67.956 105.076 67.956ZM113.397 69.954C113.721 69.39 114.201 68.922 114.837 68.55C115.485 68.166 116.235 67.974 117.087 67.974C117.963 67.974 118.755 68.184 119.463 68.604C120.183 69.024 120.747 69.618 121.155 70.386C121.563 71.142 121.767 72.024 121.767 73.032C121.767 74.028 121.563 74.916 121.155 75.696C120.747 76.476 120.183 77.082 119.463 77.514C118.755 77.946 117.963 78.162 117.087 78.162C116.247 78.162 115.503 77.976 114.855 77.604C114.219 77.22 113.733 76.746 113.397 76.182V82.68H111.759V68.136H113.397V69.954ZM120.093 73.032C120.093 72.288 119.943 71.64 119.643 71.088C119.343 70.536 118.935 70.116 118.419 69.828C117.915 69.54 117.357 69.396 116.745 69.396C116.145 69.396 115.587 69.546 115.071 69.846C114.567 70.134 114.159 70.56 113.847 71.124C113.547 71.676 113.397 72.318 113.397 73.05C113.397 73.794 113.547 74.448 113.847 75.012C114.159 75.564 114.567 75.99 115.071 76.29C115.587 76.578 116.145 76.722 116.745 76.722C117.357 76.722 117.915 76.578 118.419 76.29C118.935 75.99 119.343 75.564 119.643 75.012C119.943 74.448 120.093 73.788 120.093 73.032ZM123.311 73.032C123.311 72.024 123.515 71.142 123.923 70.386C124.331 69.618 124.889 69.024 125.597 68.604C126.317 68.184 127.115 67.974 127.991 67.974C128.855 67.974 129.605 68.16 130.241 68.532C130.877 68.904 131.351 69.372 131.663 69.936V68.136H133.319V78H131.663V76.164C131.339 76.74 130.853 77.22 130.205 77.604C129.569 77.976 128.825 78.162 127.973 78.162C127.097 78.162 126.305 77.946 125.597 77.514C124.889 77.082 124.331 76.476 123.923 75.696C123.515 74.916 123.311 74.028 123.311 73.032ZM131.663 73.05C131.663 72.306 131.513 71.658 131.213 71.106C130.913 70.554 130.505 70.134 129.989 69.846C129.485 69.546 128.927 69.396 128.315 69.396C127.703 69.396 127.145 69.54 126.641 69.828C126.137 70.116 125.735 70.536 125.435 71.088C125.135 71.64 124.985 72.288 124.985 73.032C124.985 73.788 125.135 74.448 125.435 75.012C125.735 75.564 126.137 75.99 126.641 76.29C127.145 76.578 127.703 76.722 128.315 76.722C128.927 76.722 129.485 76.578 129.989 76.29C130.505 75.99 130.913 75.564 131.213 75.012C131.513 74.448 131.663 73.794 131.663 73.05ZM140.893 67.956C142.093 67.956 143.065 68.322 143.809 69.054C144.553 69.774 144.925 70.818 144.925 72.186V78H143.305V72.42C143.305 71.436 143.059 70.686 142.567 70.17C142.075 69.642 141.403 69.378 140.551 69.378C139.687 69.378 138.997 69.648 138.481 70.188C137.977 70.728 137.725 71.514 137.725 72.546V78H136.087V68.136H137.725V69.54C138.049 69.036 138.487 68.646 139.039 68.37C139.603 68.094 140.221 67.956 140.893 67.956ZM148.447 66.534C148.135 66.534 147.871 66.426 147.655 66.21C147.439 65.994 147.331 65.73 147.331 65.418C147.331 65.106 147.439 64.842 147.655 64.626C147.871 64.41 148.135 64.302 148.447 64.302C148.747 64.302 148.999 64.41 149.203 64.626C149.419 64.842 149.527 65.106 149.527 65.418C149.527 65.73 149.419 65.994 149.203 66.21C148.999 66.426 148.747 66.534 148.447 66.534ZM149.239 68.136V78H147.601V68.136H149.239ZM156.333 78.162C155.409 78.162 154.569 77.952 153.813 77.532C153.069 77.112 152.481 76.518 152.049 75.75C151.629 74.97 151.419 74.07 151.419 73.05C151.419 72.042 151.635 71.154 152.067 70.386C152.511 69.606 153.111 69.012 153.867 68.604C154.623 68.184 155.469 67.974 156.405 67.974C157.341 67.974 158.187 68.184 158.943 68.604C159.699 69.012 160.293 69.6 160.725 70.368C161.169 71.136 161.391 72.03 161.391 73.05C161.391 74.07 161.163 74.97 160.707 75.75C160.263 76.518 159.657 77.112 158.889 77.532C158.121 77.952 157.269 78.162 156.333 78.162ZM156.333 76.722C156.921 76.722 157.473 76.584 157.989 76.308C158.505 76.032 158.919 75.618 159.231 75.066C159.555 74.514 159.717 73.842 159.717 73.05C159.717 72.258 159.561 71.586 159.249 71.034C158.937 70.482 158.529 70.074 158.025 69.81C157.521 69.534 156.975 69.396 156.387 69.396C155.787 69.396 155.235 69.534 154.731 69.81C154.239 70.074 153.843 70.482 153.543 71.034C153.243 71.586 153.093 72.258 153.093 73.05C153.093 73.854 153.237 74.532 153.525 75.084C153.825 75.636 154.221 76.05 154.713 76.326C155.205 76.59 155.745 76.722 156.333 76.722ZM168.35 67.956C169.55 67.956 170.522 68.322 171.266 69.054C172.01 69.774 172.382 70.818 172.382 72.186V78H170.762V72.42C170.762 71.436 170.516 70.686 170.024 70.17C169.532 69.642 168.86 69.378 168.008 69.378C167.144 69.378 166.454 69.648 165.938 70.188C165.434 70.728 165.182 71.514 165.182 72.546V78H163.544V68.136H165.182V69.54C165.506 69.036 165.944 68.646 166.496 68.37C167.06 68.094 167.678 67.956 168.35 67.956ZM175.58 78.108C175.268 78.108 175.004 78 174.788 77.784C174.572 77.568 174.464 77.304 174.464 76.992C174.464 76.68 174.572 76.416 174.788 76.2C175.004 75.984 175.268 75.876 175.58 75.876C175.88 75.876 176.132 75.984 176.336 76.2C176.552 76.416 176.66 76.68 176.66 76.992C176.66 77.304 176.552 77.568 176.336 77.784C176.132 78 175.88 78.108 175.58 78.108Z" fill="#69697B"/>
</svg>
