<svg width="519" height="204" viewBox="0 0 519 204" fill="none" xmlns="http://www.w3.org/2000/svg">
<path d="M23.46 5.58C11.34 5.58 2.1 14.46 2.1 27C2.1 39.54 11.34 48.36 23.52 48.36C34.68 48.36 42.3 40.56 43.98 32.04V24.72H21.3V31.14H35.7C34.44 37.08 30.3 40.8 23.82 40.8C16.02 40.8 10.74 35.52 10.74 27C10.74 18.66 15.96 13.32 23.46 13.32C27.9 13.32 31.38 15.18 33.3 18.72H42.96C40.26 10.32 32.82 5.58 23.46 5.58ZM64.4747 21.12C68.7947 21.12 72.2747 23.88 72.3947 28.26H56.6147C57.2747 23.7 60.4547 21.12 64.4747 21.12ZM80.2547 37.56H71.1947C70.1147 39.78 68.1347 41.58 64.5347 41.58C60.3347 41.58 56.9747 38.82 56.5547 33.9H80.8547C81.0347 32.82 81.0947 31.74 81.0947 30.66C81.0947 20.76 74.3147 14.22 64.7147 14.22C54.8747 14.22 48.0347 20.88 48.0347 31.38C48.0347 41.82 55.0547 48.54 64.7147 48.54C72.9347 48.54 78.4547 43.68 80.2547 37.56ZM88.5459 37.68C88.5459 45.3 92.8059 48 99.1659 48H104.446V40.92H100.546C97.9059 40.92 97.0059 39.96 97.0059 37.74V21.66H104.446V14.76H97.0059V6.54H88.5459V14.76H84.5859V21.66H88.5459V37.68ZM138.945 37.98L130.365 14.76H120.945L134.265 47.16L127.065 63.72H136.005L156.585 14.76H147.645L138.945 37.98ZM193.213 31.38C193.213 20.88 185.713 14.22 176.113 14.22C166.513 14.22 159.013 20.88 159.013 31.38C159.013 41.82 166.273 48.54 175.873 48.54C185.533 48.54 193.213 41.82 193.213 31.38ZM167.533 31.38C167.533 24.72 171.553 21.54 175.993 21.54C180.433 21.54 184.573 24.72 184.573 31.38C184.573 37.98 180.313 41.22 175.873 41.22C171.373 41.22 167.533 37.98 167.533 31.38ZM230.754 14.76H222.294V33.06C222.294 38.4 219.414 41.28 214.854 41.28C210.414 41.28 207.474 38.4 207.474 33.06V14.76H199.074V34.26C199.074 43.38 204.654 48.42 212.394 48.42C216.534 48.42 220.194 46.62 222.294 43.8V48H230.754V14.76ZM247.442 31.44C247.442 25.02 250.442 23.1 255.422 23.1H257.642V14.28C253.022 14.28 249.542 16.5 247.442 19.92V14.76H239.042V48H247.442V31.44ZM275.437 31.38C275.437 41.82 282.277 48.54 291.877 48.54C300.157 48.54 305.737 43.86 307.537 36.78H298.477C297.457 39.78 295.297 41.34 291.817 41.34C287.137 41.34 284.017 37.86 284.017 31.38C284.017 24.9 287.137 21.36 291.817 21.36C295.297 21.36 297.517 23.16 298.477 25.98H307.537C305.737 18.54 300.157 14.22 291.877 14.22C282.277 14.22 275.437 20.94 275.437 31.38ZM345.071 14.76H336.611V33.06C336.611 38.4 333.731 41.28 329.171 41.28C324.731 41.28 321.791 38.4 321.791 33.06V14.76H313.391V34.26C313.391 43.38 318.971 48.42 326.711 48.42C330.851 48.42 334.511 46.62 336.611 43.8V48H345.071V14.76ZM353.359 48H361.759V14.76H353.359V48ZM357.619 10.8C360.559 10.8 362.779 8.64 362.779 5.88C362.779 3.12 360.559 0.959998 357.619 0.959998C354.619 0.959998 352.459 3.12 352.459 5.88C352.459 8.64 354.619 10.8 357.619 10.8ZM395.858 38.52C395.618 26.34 377.198 30.12 377.198 24.06C377.198 22.14 378.818 20.88 381.938 20.88C385.238 20.88 387.278 22.62 387.518 25.2H395.558C395.078 18.6 390.218 14.22 382.178 14.22C373.958 14.22 369.038 18.66 369.038 24.18C369.038 36.36 387.818 32.58 387.818 38.52C387.818 40.44 386.018 41.94 382.718 41.94C379.358 41.94 377.018 40.02 376.718 37.5H368.258C368.618 43.68 374.438 48.54 382.778 48.54C390.878 48.54 395.858 44.22 395.858 38.52ZM402.753 48H411.153V14.76H402.753V48ZM407.013 10.8C409.953 10.8 412.173 8.64 412.173 5.88C412.173 3.12 409.953 0.959998 407.013 0.959998C404.013 0.959998 401.853 3.12 401.853 5.88C401.853 8.64 404.013 10.8 407.013 10.8ZM442.733 48H451.133V28.5C451.133 19.32 445.612 14.28 437.873 14.28C433.613 14.28 430.013 16.08 427.853 18.9V14.76H419.453V48H427.853V29.64C427.853 24.3 430.793 21.42 435.353 21.42C439.793 21.42 442.733 24.3 442.733 29.64V48ZM473.4 21.12C477.72 21.12 481.2 23.88 481.32 28.26H465.54C466.2 23.7 469.38 21.12 473.4 21.12ZM489.18 37.56H480.12C479.04 39.78 477.06 41.58 473.46 41.58C469.26 41.58 465.9 38.82 465.48 33.9H489.78C489.96 32.82 490.02 31.74 490.02 30.66C490.02 20.76 483.24 14.22 473.64 14.22C463.8 14.22 456.96 20.88 456.96 31.38C456.96 41.82 463.98 48.54 473.64 48.54C481.86 48.54 487.38 43.68 489.18 37.56ZM1.98 101.26C1.98 111.64 8.7 118.54 17.16 118.54C22.38 118.54 26.1 116.14 28.08 113.08V118H36.6V73.6H28.08V89.38C25.8 86.26 21.6 84.22 17.22 84.22C8.7 84.22 1.98 90.88 1.98 101.26ZM28.14 101.38C28.14 107.68 23.94 111.16 19.32 111.16C14.82 111.16 10.56 107.56 10.56 101.26C10.56 94.96 14.82 91.6 19.32 91.6C23.94 91.6 28.14 95.08 28.14 101.38ZM59.0841 91.12C63.4041 91.12 66.8841 93.88 67.0041 98.26H51.2241C51.8841 93.7 55.0641 91.12 59.0841 91.12ZM74.8641 107.56H65.8041C64.7241 109.78 62.7441 111.58 59.1441 111.58C54.9441 111.58 51.5841 108.82 51.1641 103.9H75.4641C75.6441 102.82 75.7041 101.74 75.7041 100.66C75.7041 90.76 68.9241 84.22 59.3241 84.22C49.4841 84.22 42.6441 90.88 42.6441 101.38C42.6441 111.82 49.6641 118.54 59.3241 118.54C67.5441 118.54 73.0641 113.68 74.8641 107.56ZM81.8353 118H90.2353V73.6H81.8353V118ZM98.5345 118H106.935V84.76H98.5345V118ZM102.795 80.8C105.735 80.8 107.955 78.64 107.955 75.88C107.955 73.12 105.735 70.96 102.795 70.96C99.7945 70.96 97.6345 73.12 97.6345 75.88C97.6345 78.64 99.7945 80.8 102.795 80.8ZM111.694 84.76L123.934 118H134.134L146.434 84.76H137.494L129.094 110.26L120.694 84.76H111.694ZM165.432 91.12C169.752 91.12 173.232 93.88 173.352 98.26H157.572C158.232 93.7 161.412 91.12 165.432 91.12ZM181.212 107.56H172.152C171.072 109.78 169.092 111.58 165.492 111.58C161.292 111.58 157.932 108.82 157.512 103.9H181.812C181.992 102.82 182.052 101.74 182.052 100.66C182.052 90.76 175.272 84.22 165.672 84.22C155.832 84.22 148.992 90.88 148.992 101.38C148.992 111.82 156.012 118.54 165.672 118.54C173.892 118.54 179.412 113.68 181.212 107.56ZM196.583 101.44C196.583 95.02 199.583 93.1 204.563 93.1H206.783V84.28C202.163 84.28 198.683 86.5 196.583 89.92V84.76H188.183V118H196.583V101.44ZM226.721 91.12C231.041 91.12 234.521 93.88 234.641 98.26H218.861C219.521 93.7 222.701 91.12 226.721 91.12ZM242.501 107.56H233.441C232.361 109.78 230.381 111.58 226.781 111.58C222.581 111.58 219.221 108.82 218.801 103.9H243.101C243.281 102.82 243.341 101.74 243.341 100.66C243.341 90.76 236.561 84.22 226.961 84.22C217.121 84.22 210.281 90.88 210.281 101.38C210.281 111.82 217.301 118.54 226.961 118.54C235.181 118.54 240.701 113.68 242.501 107.56ZM247.312 101.26C247.312 111.64 254.032 118.54 262.492 118.54C267.712 118.54 271.432 116.14 273.412 113.08V118H281.932V73.6H273.412V89.38C271.132 86.26 266.932 84.22 262.552 84.22C254.032 84.22 247.312 90.88 247.312 101.26ZM273.472 101.38C273.472 107.68 269.272 111.16 264.652 111.16C260.152 111.16 255.892 107.56 255.892 101.26C255.892 94.96 260.152 91.6 264.652 91.6C269.272 91.6 273.472 95.08 273.472 101.38ZM312.833 101.44C312.833 95.02 315.833 93.1 320.813 93.1H323.033V84.28C318.413 84.28 314.933 86.5 312.833 89.92V84.76H304.433V118H312.833V101.44ZM328.691 118H337.091V84.76H328.691V118ZM332.951 80.8C335.891 80.8 338.111 78.64 338.111 75.88C338.111 73.12 335.891 70.96 332.951 70.96C329.951 70.96 327.791 73.12 327.791 75.88C327.791 78.64 329.951 80.8 332.951 80.8ZM343.23 101.26C343.23 111.64 349.95 118.54 358.41 118.54C363.63 118.54 367.41 115.96 369.39 113.08V118.24C369.39 124.42 365.79 127.06 361.17 127.06C356.97 127.06 353.85 125.08 353.01 122.08H344.67C345.51 129.7 352.05 134.38 361.41 134.38C372.33 134.38 377.85 127.24 377.85 118.24V84.76H369.39V89.5C367.41 86.62 363.63 84.22 358.41 84.22C349.95 84.22 343.23 90.88 343.23 101.26ZM369.39 101.38C369.39 107.68 365.19 111.16 360.57 111.16C356.07 111.16 351.81 107.56 351.81 101.26C351.81 94.96 356.07 91.6 360.57 91.6C365.19 91.6 369.39 95.08 369.39 101.38ZM386.054 118H394.454V99.64C394.454 94.3 397.394 91.42 401.954 91.42C406.394 91.42 409.334 94.3 409.334 99.64V118H417.734V98.5C417.734 89.32 412.274 84.28 404.774 84.28C400.334 84.28 396.614 86.08 394.454 88.9V73.6H386.054V118ZM427.042 107.68C427.042 115.3 431.302 118 437.662 118H442.942V110.92H439.042C436.402 110.92 435.502 109.96 435.502 107.74V91.66H442.942V84.76H435.502V76.54H427.042V84.76H423.082V91.66H427.042V107.68ZM464.601 107.68C464.601 115.3 468.861 118 475.221 118H480.501V110.92H476.601C473.961 110.92 473.061 109.96 473.061 107.74V91.66H480.501V84.76H473.061V76.54H464.601V84.76H460.641V91.66H464.601V107.68ZM518.642 101.38C518.642 90.88 511.142 84.22 501.542 84.22C491.942 84.22 484.442 90.88 484.442 101.38C484.442 111.82 491.702 118.54 501.302 118.54C510.962 118.54 518.642 111.82 518.642 101.38ZM492.962 101.38C492.962 94.72 496.982 91.54 501.422 91.54C505.862 91.54 510.002 94.72 510.002 101.38C510.002 107.98 505.742 111.22 501.302 111.22C496.802 111.22 492.962 107.98 492.962 101.38Z" fill="#212244"/>
<path d="M18.3 177.98L9.72 154.76H0.3L13.62 187.16L6.42 203.72H15.36L35.94 154.76H27L18.3 177.98ZM72.5681 171.38C72.5681 160.88 65.0681 154.22 55.4681 154.22C45.8681 154.22 38.3681 160.88 38.3681 171.38C38.3681 181.82 45.6281 188.54 55.2281 188.54C64.8881 188.54 72.5681 181.82 72.5681 171.38ZM46.8881 171.38C46.8881 164.72 50.9081 161.54 55.3481 161.54C59.7881 161.54 63.9281 164.72 63.9281 171.38C63.9281 177.98 59.6681 181.22 55.2281 181.22C50.7281 181.22 46.8881 177.98 46.8881 171.38ZM110.11 154.76H101.65V173.06C101.65 178.4 98.7698 181.28 94.2098 181.28C89.7698 181.28 86.8298 178.4 86.8298 173.06V154.76H78.4298V174.26C78.4298 183.38 84.0098 188.42 91.7498 188.42C95.8898 188.42 99.5498 186.62 101.65 183.8V188H110.11V154.76ZM126.798 171.44C126.798 165.02 129.798 163.1 134.778 163.1H136.998V154.28C132.378 154.28 128.898 156.5 126.798 159.92V154.76H118.398V188H126.798V171.44ZM154.792 171.26C154.792 181.64 161.513 188.54 169.973 188.54C175.193 188.54 178.913 186.14 180.893 183.08V188H189.413V143.6H180.893V159.38C178.613 156.26 174.413 154.22 170.033 154.22C161.513 154.22 154.792 160.88 154.792 171.26ZM180.953 171.38C180.953 177.68 176.753 181.16 172.133 181.16C167.633 181.16 163.373 177.56 163.373 171.26C163.373 164.96 167.633 161.6 172.133 161.6C176.753 161.6 180.953 165.08 180.953 171.38ZM229.717 171.38C229.717 160.88 222.217 154.22 212.617 154.22C203.017 154.22 195.517 160.88 195.517 171.38C195.517 181.82 202.777 188.54 212.377 188.54C222.037 188.54 229.717 181.82 229.717 171.38ZM204.037 171.38C204.037 164.72 208.057 161.54 212.497 161.54C216.937 161.54 221.077 164.72 221.077 171.38C221.077 177.98 216.817 181.22 212.377 181.22C207.877 181.22 204.037 177.98 204.037 171.38ZM267.978 171.38C267.978 160.88 260.478 154.22 250.878 154.22C241.278 154.22 233.778 160.88 233.778 171.38C233.778 181.82 241.038 188.54 250.638 188.54C260.298 188.54 267.978 181.82 267.978 171.38ZM242.298 171.38C242.298 164.72 246.318 161.54 250.758 161.54C255.198 161.54 259.338 164.72 259.338 171.38C259.338 177.98 255.078 181.22 250.638 181.22C246.138 181.22 242.298 177.98 242.298 171.38ZM282.54 171.44C282.54 165.02 285.54 163.1 290.52 163.1H292.74V154.28C288.12 154.28 284.64 156.5 282.54 159.92V154.76H274.14V188H282.54V171.44Z" fill="#F94A3D"/>
</svg>
