<svg width="434" height="100" viewBox="0 0 434 100" fill="none" xmlns="http://www.w3.org/2000/svg">
<rect x="325" y="24" width="109" height="40" rx="10" fill="#F94A3D"/>
<path d="M361.48 46.96C361.48 42.832 355.464 44.624 355.464 41.744C355.464 40.544 356.408 39.92 357.608 39.952C358.968 39.968 359.672 40.816 359.768 41.568H361.368C361.192 39.872 359.8 38.704 357.672 38.704C355.464 38.704 353.976 39.952 353.976 41.792C353.976 45.936 360.008 44.016 360.008 47.024C360.008 48.08 359.176 48.88 357.768 48.88C356.216 48.88 355.56 47.952 355.464 47.024H353.912C353.944 48.864 355.528 50.112 357.768 50.112C360.184 50.112 361.48 48.544 361.48 46.96ZM363.463 50H364.919V41.232H363.463V50ZM364.215 39.808C364.743 39.808 365.175 39.376 365.175 38.816C365.175 38.256 364.743 37.824 364.215 37.824C363.655 37.824 363.223 38.256 363.223 38.816C363.223 39.376 363.655 39.808 364.215 39.808ZM366.696 45.584C366.696 48.304 368.504 50.144 370.856 50.144C372.456 50.144 373.592 49.296 374.12 48.352V50.192C374.12 52.064 372.952 53.056 371.4 53.056C369.96 53.056 368.92 52.336 368.6 51.28H367.16C367.448 53.152 369.096 54.32 371.4 54.32C373.976 54.32 375.592 52.608 375.592 50.192V41.232H374.12V42.832C373.608 41.888 372.456 41.088 370.856 41.088C368.504 41.088 366.696 42.848 366.696 45.584ZM374.12 45.6C374.12 47.664 372.744 48.864 371.144 48.864C369.544 48.864 368.184 47.648 368.184 45.584C368.184 43.52 369.544 42.352 371.144 42.352C372.744 42.352 374.12 43.568 374.12 45.6ZM384.309 50H385.749V44.832C385.749 42.32 384.197 41.072 382.165 41.072C380.981 41.072 379.925 41.568 379.349 42.48V41.232H377.893V50H379.349V45.152C379.349 43.264 380.373 42.336 381.861 42.336C383.333 42.336 384.309 43.248 384.309 45.04V50ZM392.073 50H393.529V38.848H392.073V50ZM402.266 50H403.706V44.832C403.706 42.32 402.154 41.072 400.122 41.072C398.938 41.072 397.882 41.568 397.306 42.48V41.232H395.85V50H397.306V45.152C397.306 43.264 398.33 42.336 399.818 42.336C401.29 42.336 402.266 43.248 402.266 45.04V50Z" fill="white"/>
<g filter="url(#filter0_d_3119_3115)">
<path d="M30 34C30 28.4772 34.4772 24 40 24H242C247.523 24 252 28.4772 252 34V54C252 59.5228 247.523 64 242 64H40C34.4771 64 30 59.5228 30 54V34Z" fill="white"/>
<path d="M30.5 34C30.5 28.7533 34.7533 24.5 40 24.5H242C247.247 24.5 251.5 28.7533 251.5 34V54C251.5 59.2467 247.247 63.5 242 63.5H40C34.7533 63.5 30.5 59.2467 30.5 54V34Z" stroke="#69697B" stroke-opacity="0.1"/>
</g>
<path d="M52.172 49.098C51.528 49.098 50.9493 48.986 50.436 48.762C49.932 48.5287 49.5353 48.2113 49.246 47.81C48.9567 47.3993 48.8073 46.928 48.798 46.396H50.156C50.2027 46.8533 50.3893 47.2407 50.716 47.558C51.052 47.866 51.5373 48.02 52.172 48.02C52.7787 48.02 53.2547 47.8707 53.6 47.572C53.9547 47.264 54.132 46.872 54.132 46.396C54.132 46.0227 54.0293 45.7193 53.824 45.486C53.6187 45.2527 53.362 45.0753 53.054 44.954C52.746 44.8327 52.3307 44.702 51.808 44.562C51.164 44.394 50.646 44.226 50.254 44.058C49.8713 43.89 49.54 43.6287 49.26 43.274C48.9893 42.91 48.854 42.4247 48.854 41.818C48.854 41.286 48.9893 40.8147 49.26 40.404C49.5307 39.9933 49.9087 39.676 50.394 39.452C50.8887 39.228 51.4533 39.116 52.088 39.116C53.0027 39.116 53.7493 39.3447 54.328 39.802C54.916 40.2593 55.2473 40.866 55.322 41.622H53.922C53.8753 41.2487 53.6793 40.922 53.334 40.642C52.9887 40.3527 52.5313 40.208 51.962 40.208C51.43 40.208 50.996 40.348 50.66 40.628C50.324 40.8987 50.156 41.2813 50.156 41.776C50.156 42.1307 50.254 42.42 50.45 42.644C50.6553 42.868 50.9027 43.0407 51.192 43.162C51.4907 43.274 51.906 43.4047 52.438 43.554C53.082 43.7313 53.6 43.9087 53.992 44.086C54.384 44.254 54.72 44.52 55 44.884C55.28 45.2387 55.42 45.724 55.42 46.34C55.42 46.816 55.294 47.264 55.042 47.684C54.79 48.104 54.4167 48.4447 53.922 48.706C53.4273 48.9673 52.844 49.098 52.172 49.098ZM64.2948 44.87C64.2948 45.1127 64.2808 45.3693 64.2528 45.64H58.1208C58.1675 46.396 58.4241 46.9887 58.8908 47.418C59.3668 47.838 59.9408 48.048 60.6128 48.048C61.1635 48.048 61.6208 47.922 61.9848 47.67C62.3581 47.4087 62.6195 47.0633 62.7688 46.634H64.1408C63.9355 47.3713 63.5248 47.9733 62.9088 48.44C62.2928 48.8973 61.5275 49.126 60.6128 49.126C59.8848 49.126 59.2315 48.9627 58.6528 48.636C58.0835 48.3093 57.6355 47.8473 57.3088 47.25C56.9821 46.6433 56.8188 45.9433 56.8188 45.15C56.8188 44.3567 56.9775 43.6613 57.2948 43.064C57.6121 42.4667 58.0555 42.0093 58.6248 41.692C59.2035 41.3653 59.8661 41.202 60.6128 41.202C61.3408 41.202 61.9848 41.3607 62.5448 41.678C63.1048 41.9953 63.5341 42.434 63.8328 42.994C64.1408 43.5447 64.2948 44.17 64.2948 44.87ZM62.9788 44.604C62.9788 44.1187 62.8715 43.7033 62.6568 43.358C62.4421 43.0033 62.1481 42.7373 61.7748 42.56C61.4108 42.3733 61.0048 42.28 60.5568 42.28C59.9128 42.28 59.3621 42.4853 58.9048 42.896C58.4568 43.3067 58.2001 43.876 58.1348 44.604H62.9788ZM65.5004 45.136C65.5004 44.352 65.6591 43.666 65.9764 43.078C66.2938 42.4807 66.7278 42.0187 67.2784 41.692C67.8384 41.3653 68.4591 41.202 69.1404 41.202C69.8124 41.202 70.3958 41.3467 70.8904 41.636C71.3851 41.9253 71.7538 42.2893 71.9964 42.728V41.328H73.2844V49H71.9964V47.572C71.7444 48.02 71.3664 48.3933 70.8624 48.692C70.3678 48.9813 69.7891 49.126 69.1264 49.126C68.4451 49.126 67.8291 48.958 67.2784 48.622C66.7278 48.286 66.2938 47.8147 65.9764 47.208C65.6591 46.6013 65.5004 45.9107 65.5004 45.136ZM71.9964 45.15C71.9964 44.5713 71.8798 44.0673 71.6464 43.638C71.4131 43.2087 71.0958 42.882 70.6944 42.658C70.3024 42.4247 69.8684 42.308 69.3924 42.308C68.9164 42.308 68.4824 42.42 68.0904 42.644C67.6984 42.868 67.3858 43.1947 67.1524 43.624C66.9191 44.0533 66.8024 44.5573 66.8024 45.136C66.8024 45.724 66.9191 46.2373 67.1524 46.676C67.3858 47.1053 67.6984 47.4367 68.0904 47.67C68.4824 47.894 68.9164 48.006 69.3924 48.006C69.8684 48.006 70.3024 47.894 70.6944 47.67C71.0958 47.4367 71.4131 47.1053 71.6464 46.676C71.8798 46.2373 71.9964 45.7287 71.9964 45.15ZM76.7114 42.574C76.9354 42.1353 77.2527 41.7947 77.6634 41.552C78.0834 41.3093 78.592 41.188 79.1894 41.188V42.504H78.8534C77.4254 42.504 76.7114 43.2787 76.7114 44.828V49H75.4374V41.328H76.7114V42.574ZM80.184 45.15C80.184 44.3567 80.3427 43.666 80.66 43.078C80.9774 42.4807 81.416 42.0187 81.976 41.692C82.5454 41.3653 83.194 41.202 83.922 41.202C84.8647 41.202 85.6394 41.4307 86.246 41.888C86.862 42.3453 87.268 42.98 87.464 43.792H86.092C85.9614 43.3253 85.7047 42.9567 85.322 42.686C84.9487 42.4153 84.482 42.28 83.922 42.28C83.194 42.28 82.606 42.532 82.158 43.036C81.71 43.5307 81.486 44.2353 81.486 45.15C81.486 46.074 81.71 46.788 82.158 47.292C82.606 47.796 83.194 48.048 83.922 48.048C84.482 48.048 84.9487 47.9173 85.322 47.656C85.6954 47.3947 85.952 47.0213 86.092 46.536H87.464C87.2587 47.32 86.848 47.95 86.232 48.426C85.616 48.8927 84.846 49.126 83.922 49.126C83.194 49.126 82.5454 48.9627 81.976 48.636C81.416 48.3093 80.9774 47.8473 80.66 47.25C80.3427 46.6527 80.184 45.9527 80.184 45.15ZM92.9719 41.188C93.5506 41.188 94.0733 41.314 94.5399 41.566C95.0066 41.8087 95.3706 42.1773 95.6319 42.672C95.9026 43.1667 96.0379 43.7687 96.0379 44.478V49H94.7779V44.66C94.7779 43.8947 94.5866 43.3113 94.2039 42.91C93.8213 42.4993 93.2986 42.294 92.6359 42.294C91.9639 42.294 91.4273 42.504 91.0259 42.924C90.6339 43.344 90.4379 43.9553 90.4379 44.758V49H89.1639V38.64H90.4379V42.42C90.6899 42.028 91.0353 41.7247 91.4739 41.51C91.9219 41.2953 92.4213 41.188 92.9719 41.188ZM108.459 41.328L103.839 52.612H102.523L104.035 48.916L100.941 41.328H102.355L104.763 47.544L107.143 41.328H108.459ZM113.086 49.126C112.367 49.126 111.714 48.9627 111.126 48.636C110.547 48.3093 110.09 47.8473 109.754 47.25C109.427 46.6433 109.264 45.9433 109.264 45.15C109.264 44.366 109.432 43.6753 109.768 43.078C110.113 42.4713 110.58 42.0093 111.168 41.692C111.756 41.3653 112.414 41.202 113.142 41.202C113.87 41.202 114.528 41.3653 115.116 41.692C115.704 42.0093 116.166 42.4667 116.502 43.064C116.847 43.6613 117.02 44.3567 117.02 45.15C117.02 45.9433 116.843 46.6433 116.488 47.25C116.143 47.8473 115.671 48.3093 115.074 48.636C114.477 48.9627 113.814 49.126 113.086 49.126ZM113.086 48.006C113.543 48.006 113.973 47.8987 114.374 47.684C114.775 47.4693 115.097 47.1473 115.34 46.718C115.592 46.2887 115.718 45.766 115.718 45.15C115.718 44.534 115.597 44.0113 115.354 43.582C115.111 43.1527 114.794 42.8353 114.402 42.63C114.01 42.4153 113.585 42.308 113.128 42.308C112.661 42.308 112.232 42.4153 111.84 42.63C111.457 42.8353 111.149 43.1527 110.916 43.582C110.683 44.0113 110.566 44.534 110.566 45.15C110.566 45.7753 110.678 46.3027 110.902 46.732C111.135 47.1613 111.443 47.4833 111.826 47.698C112.209 47.9033 112.629 48.006 113.086 48.006ZM125.499 41.328V49H124.225V47.866C123.983 48.258 123.642 48.566 123.203 48.79C122.774 49.0047 122.298 49.112 121.775 49.112C121.178 49.112 120.641 48.9907 120.165 48.748C119.689 48.496 119.311 48.1227 119.031 47.628C118.761 47.1333 118.625 46.5313 118.625 45.822V41.328H119.885V45.654C119.885 46.41 120.077 46.9933 120.459 47.404C120.842 47.8053 121.365 48.006 122.027 48.006C122.709 48.006 123.245 47.796 123.637 47.376C124.029 46.956 124.225 46.3447 124.225 45.542V41.328H125.499ZM128.924 42.574C129.148 42.1353 129.466 41.7947 129.876 41.552C130.296 41.3093 130.805 41.188 131.402 41.188V42.504H131.066C129.638 42.504 128.924 43.2787 128.924 44.828V49H127.65V41.328H128.924V42.574ZM137.263 40.082C137.021 40.082 136.815 39.998 136.647 39.83C136.479 39.662 136.395 39.4567 136.395 39.214C136.395 38.9713 136.479 38.766 136.647 38.598C136.815 38.43 137.021 38.346 137.263 38.346C137.497 38.346 137.693 38.43 137.851 38.598C138.019 38.766 138.103 38.9713 138.103 39.214C138.103 39.4567 138.019 39.662 137.851 39.83C137.693 39.998 137.497 40.082 137.263 40.082ZM137.879 41.328V49H136.605V41.328H137.879ZM141.605 42.378V46.9C141.605 47.2733 141.684 47.5393 141.843 47.698C142.001 47.8473 142.277 47.922 142.669 47.922H143.607V49H142.459C141.749 49 141.217 48.8367 140.863 48.51C140.508 48.1833 140.331 47.6467 140.331 46.9V42.378H139.337V41.328H140.331V39.396H141.605V41.328H143.607V42.378H141.605ZM152.15 44.87C152.15 45.1127 152.136 45.3693 152.108 45.64H145.976C146.023 46.396 146.28 46.9887 146.746 47.418C147.222 47.838 147.796 48.048 148.468 48.048C149.019 48.048 149.476 47.922 149.84 47.67C150.214 47.4087 150.475 47.0633 150.624 46.634H151.996C151.791 47.3713 151.38 47.9733 150.764 48.44C150.148 48.8973 149.383 49.126 148.468 49.126C147.74 49.126 147.087 48.9627 146.508 48.636C145.939 48.3093 145.491 47.8473 145.164 47.25C144.838 46.6433 144.674 45.9433 144.674 45.15C144.674 44.3567 144.833 43.6613 145.15 43.064C145.468 42.4667 145.911 42.0093 146.48 41.692C147.059 41.3653 147.722 41.202 148.468 41.202C149.196 41.202 149.84 41.3607 150.4 41.678C150.96 41.9953 151.39 42.434 151.688 42.994C151.996 43.5447 152.15 44.17 152.15 44.87ZM150.834 44.604C150.834 44.1187 150.727 43.7033 150.512 43.358C150.298 43.0033 150.004 42.7373 149.63 42.56C149.266 42.3733 148.86 42.28 148.412 42.28C147.768 42.28 147.218 42.4853 146.76 42.896C146.312 43.3067 146.056 43.876 145.99 44.604H150.834ZM163.058 41.188C163.655 41.188 164.187 41.314 164.654 41.566C165.121 41.8087 165.489 42.1773 165.76 42.672C166.031 43.1667 166.166 43.7687 166.166 44.478V49H164.906V44.66C164.906 43.8947 164.715 43.3113 164.332 42.91C163.959 42.4993 163.45 42.294 162.806 42.294C162.143 42.294 161.616 42.5087 161.224 42.938C160.832 43.358 160.636 43.9693 160.636 44.772V49H159.376V44.66C159.376 43.8947 159.185 43.3113 158.802 42.91C158.429 42.4993 157.92 42.294 157.276 42.294C156.613 42.294 156.086 42.5087 155.694 42.938C155.302 43.358 155.106 43.9693 155.106 44.772V49H153.832V41.328H155.106V42.434C155.358 42.0327 155.694 41.7247 156.114 41.51C156.543 41.2953 157.015 41.188 157.528 41.188C158.172 41.188 158.741 41.3327 159.236 41.622C159.731 41.9113 160.099 42.336 160.342 42.896C160.557 42.3547 160.911 41.9347 161.406 41.636C161.901 41.3373 162.451 41.188 163.058 41.188Z" fill="#69697B"/>
<path d="M235.212 50.5735L231.404 46.6129C232.384 45.449 232.92 43.9846 232.92 42.46C232.92 38.898 230.022 36 226.46 36C222.898 36 220 38.898 220 42.46C220 46.022 222.898 48.92 226.46 48.92C227.797 48.92 229.072 48.5167 230.161 47.751L233.998 51.7416C234.158 51.9082 234.374 52 234.605 52C234.824 52 235.032 51.9166 235.189 51.7649C235.524 51.4428 235.535 50.9085 235.212 50.5735ZM226.46 37.6852C229.093 37.6852 231.235 39.8271 231.235 42.46C231.235 45.0929 229.093 47.2348 226.46 47.2348C223.827 47.2348 221.685 45.0929 221.685 42.46C221.685 39.8271 223.827 37.6852 226.46 37.6852Z" fill="#69697B"/>
<line x1="203.5" y1="31.5" x2="203.5" y2="55.5" stroke="#69697B" stroke-opacity="0.1" stroke-linecap="round"/>
<path d="M278.918 42.9565H291.386L293.304 56H277L278.918 42.9565Z" stroke="#232323" stroke-linejoin="round"/>
<path d="M288.957 45.1304V41.3261C288.957 39.225 287.253 37.5217 285.152 37.5217V37.5217C283.051 37.5217 281.348 39.225 281.348 41.3261V45.1304" stroke="#232323"/>
<g filter="url(#filter1_d_3119_3115)">
<circle cx="293.304" cy="38.6087" r="7.6087" fill="#F94A3D"/>
</g>
<path d="M293.104 42H294.224V40.48H295.154V39.49H294.224V34.8H292.844L289.484 39.62V40.48H293.104V42ZM290.794 39.49L293.154 35.96V39.49H290.794Z" fill="white"/>
<defs>
<filter id="filter0_d_3119_3115" x="0" y="0" width="282" height="100" filterUnits="userSpaceOnUse" color-interpolation-filters="sRGB">
<feFlood flood-opacity="0" result="BackgroundImageFix"/>
<feColorMatrix in="SourceAlpha" type="matrix" values="0 0 0 0 0 0 0 0 0 0 0 0 0 0 0 0 0 0 127 0" result="hardAlpha"/>
<feOffset dy="6"/>
<feGaussianBlur stdDeviation="15"/>
<feColorMatrix type="matrix" values="0 0 0 0 0 0 0 0 0 0 0 0 0 0 0 0 0 0 0.04 0"/>
<feBlend mode="normal" in2="BackgroundImageFix" result="effect1_dropShadow_3119_3115"/>
<feBlend mode="normal" in="SourceGraphic" in2="effect1_dropShadow_3119_3115" result="shape"/>
</filter>
<filter id="filter1_d_3119_3115" x="276.696" y="26" width="33.2174" height="33.2173" filterUnits="userSpaceOnUse" color-interpolation-filters="sRGB">
<feFlood flood-opacity="0" result="BackgroundImageFix"/>
<feColorMatrix in="SourceAlpha" type="matrix" values="0 0 0 0 0 0 0 0 0 0 0 0 0 0 0 0 0 0 127 0" result="hardAlpha"/>
<feOffset dy="4"/>
<feGaussianBlur stdDeviation="4.5"/>
<feColorMatrix type="matrix" values="0 0 0 0 0.92549 0 0 0 0 0.407843 0 0 0 0 0.152941 0 0 0 0.15 0"/>
<feBlend mode="normal" in2="BackgroundImageFix" result="effect1_dropShadow_3119_3115"/>
<feBlend mode="normal" in="SourceGraphic" in2="effect1_dropShadow_3119_3115" result="shape"/>
</filter>
</defs>
</svg>
